<svg id="レイヤー_1" data-name="レイヤー 1" xmlns="http://www.w3.org/2000/svg" viewBox="0 0 130.15 50.09"><defs><style>.cls-1{fill:#0095b6;}</style></defs><path class="cls-1" d="M2.19,23.69c4.88-.72,6.53-2.24,6.53-4.6,0-3.18-2.79-6.41-2.79-10.68,0-4.43,3.84-6.62,9.7-6.62H17.9V4.24l-1.57.16c-3.32.35-4.84,1.45-4.84,4.23,0,3.51,1.43,7,1.43,9.54,0,4.14-2.7,7-8.7,7.24v-.92c6,.22,8.7,3.09,8.7,7.23,0,2.49-1.43,6-1.43,9.55,0,2.77,1.52,3.87,4.84,4.22l1.57.16V48.1H15.63c-5.86,0-9.7-2.18-9.7-6.62,0-4.26,2.79-7.5,2.79-10.68,0-2.35-1.65-3.88-6.53-4.6Z"/><path class="cls-1" d="M55.19,22.1c0,11.92-8.78,18.47-18.09,18.47S19,34.32,19,22.1C19,10.18,27.85,3.63,37.1,3.63S55.19,9.88,55.19,22.1ZM37.1,37.71c7,0,9.86-7.23,9.86-15.61S44.1,6.48,37.1,6.48s-9.89,7.26-9.89,15.62S30.1,37.71,37.1,37.71Z"/><path class="cls-1" d="M84.77,4.52V6.67l-22.3,33h-6.8V37.53L78,4.52ZM56.25,14.17l.47-9.65H81.4V7.37H58.73L62.5,4.52l-2.21,9.65ZM85.7,30l-.46,9.65H59V36.83H83.25l-3.82,2.85L81.62,30Z"/><path class="cls-1" d="M86.19,39.68H112v4.09H86.19Z"/><path class="cls-1" d="M128.82,26.2c-4.88.72-6.53,2.25-6.53,4.6,0,3.18,2.79,6.42,2.79,10.68,0,4.44-3.84,6.62-9.7,6.62H113.1V45.65l1.57-.16c3.33-.35,4.85-1.45,4.85-4.22,0-3.52-1.44-7.06-1.44-9.55,0-4.14,2.71-7,8.71-7.23v.92c-6-.23-8.71-3.1-8.71-7.24,0-2.49,1.44-6,1.44-9.54,0-2.78-1.52-3.88-4.85-4.23l-1.57-.16V1.79h2.28c5.86,0,9.7,2.19,9.7,6.62,0,4.27-2.79,7.5-2.79,10.68,0,2.36,1.65,3.88,6.53,4.6Z"/></svg>