<svg id="レイヤー_1" data-name="レイヤー 1" xmlns="http://www.w3.org/2000/svg" viewBox="0 0 269.99 227.17"><defs><style>.cls-1{fill:#1d59a1;}.cls-2{fill:#fff;}.cls-3{fill:#df2f3d;}</style></defs><path class="cls-1" d="M236.76,113.67c0,61.17-50.39,111.51-111.62,111.51S13.53,174.83,13.53,113.67A111.34,111.34,0,0,1,125.14,2.17c60.05,0,111.62,50.34,111.62,111.5"/><path class="cls-2" d="M150.32,172.36c47.68,19.62,39.41-30,14-67.91-14.4-21.5-33.19-39.42-45-48.07C80,27.71,55.72,45.1,83.46,101.66c9,18.28,20.5,30.62,29.5,42.26,6.87,8.88,20.26,13.32,15.54,17.54-5.31,4.75-18.18-16.21-18.18-16.21a255.08,255.08,0,0,1-27.9-40.47C61.09,66.44,64.17,27.32,102.78,44.36c32.76,14.47,64.05,55.06,76.64,83.88,5.81,13.31,21.65,66-28.81,44.68"/><path class="cls-3" d="M2,146.73c21-14,40.86-23,74.71-34.17C124.31,96.85,160.11,86.28,204,64.21c19.66-9.88,53.77-32,66-51.3-3.65,7.45-15,22-20.09,28.38-59.59,74.62-186.53,70.39-247,106.21"/><path class="cls-2" d="M32.47,92.19c19.2.15,17.31,0,17.54.19.33,0,15.33,25.82,15.33,26s-.11-9.17-.11-20.79c0-1.34-3.7-5.25-3.59-5.25,5.48,0,12.65.11,12.65.11-2.69,3.13-3.22,2.87-3.24,4.81-.08,6.22-.15,17.71,0,30.63,0,1.93,1.45,2.68,3.8,6H57.28c-5.71-9.5-16.16-27.32-16.11-27.27s-.23,11.18.11,20.12c.11,3,1.45,3.91,3.92,6.6,0,0,2.83-.08-13.77.11,5-2.68,4.37-6,4.37-6.15-.18-12.35,0-22.92,0-29.74,0-1.11-.08-1-3.54-5.25"/><path class="cls-2" d="M92.5,111.27c1.61-5.6,3-10.6,3.64-13.86.11-.56-1.23-2.57-3.36-4.58l-.15-.31,21,.08c2.79,6.82,9.17,25.94,14,37.67,1.27,3.1,3.47,3.69,3.47,3.69-8.73-.11-24.92,0-24.84-.11,4.37-3.91,3.81-3.91,1.9-9.61H94.46c-2.79,6.48.88,9.52,1.35,9.5-3.11.16-13.65,0-13.65,0,5.7-4,5.37-5.25,5.37-5.25,1.56-5.58,3.38-11.69,5-17.22h5.6c-1.2,3.86-2.41,7.71-2.41,7.71h10.86l-6-15.42s-1.21,3.85-2.41,7.71H92.5"/><path class="cls-2" d="M186.27,111.83c1.61-5.6,3-10.6,3.64-13.86.11-.56-1.23-2.57-3.35-4.59l-.16-.31,21,.09c2.79,6.82,9.17,25.94,14,37.67,1.27,3.11,3.47,3.69,3.47,3.69-8.72-.11-24.92,0-24.84-.11,4.37-3.91,3.81-3.91,1.91-9.61H188.23c-2.8,6.48.87,9.52,1.34,9.5-3.1.16-13.65,0-13.65,0,5.71-4,5.37-5.25,5.37-5.25,1.57-5.58,3.39-11.69,5-17.22h5.6c-1.21,3.86-2.41,7.71-2.41,7.71h10.86l-6-15.42-2.4,7.71Z"/><path class="cls-2" d="M168.62,102.67c-.23-7.94,0-10.51,0-10.51-3.47,2.79-1.72,2.44-10.41,1-25-4.13-26.94,19.24-13.32,24.48,11.44,4.4,15.49,5.27,13.77,9.39-.56,1.34-11,6.26-21.71-3.69l.22,13.86a49,49,0,0,1,5-3.91c.11,0,11.64,5.08,22-.22,16-8.16,8-21.37-9.06-26.61-14.21-4.36-.78-14.53,13.31-3.68"/><path class="cls-2" d="M126.72,12.3a.91.91,0,1,1-.91-.91.91.91,0,0,1,.91.91"/><path class="cls-2" d="M133,26.06A1.12,1.12,0,1,1,131.9,25,1.12,1.12,0,0,1,133,26.06"/><path class="cls-2" d="M149.38,48.56a1.12,1.12,0,0,1-2.24,0,1.1,1.1,0,0,1,1.08-1.12,1.16,1.16,0,0,1,1.16,1.12"/><path class="cls-2" d="M123.08,33.82a.91.91,0,1,1-.91-.91.91.91,0,0,1,.91.91"/><path class="cls-2" d="M132.88,39a.91.91,0,1,1-.91-.91.91.91,0,0,1,.91.91"/><path class="cls-2" d="M120.15,24.53A1.12,1.12,0,1,1,119,23.41a1.12,1.12,0,0,1,1.12,1.12"/><path class="cls-2" d="M105.32,33.54a.91.91,0,1,1-.91-.91.91.91,0,0,1,.91.91"/><path class="cls-2" d="M108,35.35a.91.91,0,1,1-1.82,0,.91.91,0,0,1,1.82,0"/><path class="cls-2" d="M110.63,37.17a.91.91,0,1,1-.91-.9.91.91,0,0,1,.91.9"/><path class="cls-2" d="M106.58,40.66a.91.91,0,1,1-.91-.9.91.91,0,0,1,.91.9"/><path class="cls-2" d="M85.46,55.48a.91.91,0,1,1-.91-.91.91.91,0,0,1,.91.91"/><path class="cls-2" d="M89.38,60.23a.91.91,0,1,1-.91-.91.92.92,0,0,1,.91.91"/><path class="cls-2" d="M86.26,136.94a.91.91,0,1,1-.91-.91.91.91,0,0,1,.91.91"/><path class="cls-2" d="M86.82,158.1A1.12,1.12,0,1,1,85.7,157a1.12,1.12,0,0,1,1.12,1.11"/><path class="cls-2" d="M74.79,168.94a.91.91,0,1,1-.91-.91.91.91,0,0,1,.91.91"/><path class="cls-2" d="M60.39,173.33a1.12,1.12,0,1,1-1.12-1.12,1.12,1.12,0,0,1,1.12,1.12"/><path class="cls-2" d="M57.45,163.55a1.12,1.12,0,1,1-1.12-1.11,1.12,1.12,0,0,1,1.12,1.11"/><path class="cls-2" d="M55.77,169.77a.91.91,0,1,1-.91-.91.91.91,0,0,1,.91.91"/><path class="cls-2" d="M45,164.61a.91.91,0,1,1-.91-.91.91.91,0,0,1,.91.91"/><path class="cls-2" d="M82.62,182.07a.88.88,0,0,1-.87.91.94.94,0,0,1-.94-.91.91.91,0,1,1,1.81,0"/><path class="cls-2" d="M94,173.76a1.1,1.1,0,0,1-1.09,1.12,1.16,1.16,0,0,1-1.15-1.12,1.12,1.12,0,1,1,2.24,0"/><path class="cls-2" d="M95.25,184.44a1,1,0,0,1-.94.92.91.91,0,1,1,0-1.82.94.94,0,0,1,.94.9"/><path class="cls-2" d="M141.82,174.24a.91.91,0,1,1-.91-.91.91.91,0,0,1,.91.91"/><path class="cls-2" d="M120.15,181.93a.91.91,0,1,1-.91-.91.91.91,0,0,1,.91.91"/><path class="cls-2" d="M178.47,193a.91.91,0,1,1-.91-.91.91.91,0,0,1,.91.91"/><path class="cls-2" d="M183.22,150a1.12,1.12,0,1,1-1.12-1.12,1.12,1.12,0,0,1,1.12,1.12"/><path class="cls-2" d="M174.28,156.08a.91.91,0,1,1-.91-.91.91.91,0,0,1,.91.91"/><path class="cls-2" d="M183.09,157.83a1.12,1.12,0,1,1-1.12-1.12,1.12,1.12,0,0,1,1.12,1.12"/><path class="cls-2" d="M174.28,168.66a.91.91,0,1,1-.91-.91.91.91,0,0,1,.91.91"/><path class="cls-2" d="M197.07,143.92a.91.91,0,1,1-.91-.9.91.91,0,0,1,.91.9"/><path class="cls-2" d="M199.28,149.44a1.09,1.09,0,0,1-1.09,1.12,1.15,1.15,0,0,1-1.15-1.12,1.12,1.12,0,0,1,2.24,0"/><path class="cls-2" d="M215,156a1.12,1.12,0,1,1-1.12-1.12A1.12,1.12,0,0,1,215,156"/><path class="cls-2" d="M199,167.68a.91.91,0,1,1-.91-.91.91.91,0,0,1,.91.91"/><path class="cls-2" d="M209.1,158.18a.91.91,0,1,1-.91-.91.91.91,0,0,1,.91.91"/><path class="cls-2" d="M207.24,172.85a.91.91,0,0,1-.9.91.91.91,0,1,1,0-1.82.91.91,0,0,1,.9.91"/><path class="cls-2" d="M211.51,148.47a1.4,1.4,0,1,1-1.4-1.4,1.4,1.4,0,0,1,1.4,1.4"/><path class="cls-2" d="M210.11,144.21l-.41,3.84-3.82.42,3.84.42.43,4,.42-4,3.77-.49-3.81-.35Z"/><path class="cls-2" d="M201.72,172.77a1.4,1.4,0,1,1-1.4-1.39,1.4,1.4,0,0,1,1.4,1.39"/><path class="cls-2" d="M200.33,168.51l-.42,3.85-3.81.42,3.84.42.42,4,.42-4,3.78-.49-3.82-.35Z"/><path class="cls-2" d="M97.38,57.36A1.4,1.4,0,1,1,96,56a1.4,1.4,0,0,1,1.4,1.4"/><path class="cls-2" d="M96,53.1l-.42,3.84-3.81.42,3.84.42.43,4,.41-4,3.78-.49-3.81-.35Z"/><path class="cls-2" d="M149.41,23.55a1.4,1.4,0,1,1-1.4-1.4,1.4,1.4,0,0,1,1.4,1.4"/><path class="cls-2" d="M148,19.28l-.42,3.85-3.81.42,3.85.42.42,4,.42-4,3.77-.49-3.81-.35Z"/><path class="cls-2" d="M86.16,195.14a1.4,1.4,0,1,1-1.4-1.4,1.4,1.4,0,0,1,1.4,1.4"/><path class="cls-2" d="M84.79,190.87l-.42,3.85-3.81.42,3.85.41.42,4,.42-4,3.77-.49-3.81-.35Z"/><path class="cls-3" d="M270,12.91c-17,50.46-85.15,89.42-142.51,126.62-34.6,22.45-69,48.29-92.61,70.27-6.23,5.8,1.27-2.17-1.12.28,33-38,71-60.64,92-74.89C161.19,111.08,181.38,105,242.6,48.62"/><path class="cls-3" d="M16.22,137.92A184.42,184.42,0,0,0,0,146.75l2.82,1a124,124,0,0,1,14.08-7.41"/><path class="cls-3" d="M48.47,194.39c-5.58,4.88-11.35,10.08-17.14,15.53l-.26,3.85A253.46,253.46,0,0,1,50.4,196.16"/><path class="cls-2" d="M150.32,172.36c47.68,19.62,39.41-30,14-67.91-14.4-21.5-32.17-38.56-45-48.07-15-11.09-16.5-12-16.5-12,33.57,15.93,64.06,55.05,76.64,83.87,5.81,13.31,21.66,66-28.81,44.68"/></svg>