<svg id="レイヤー_1" data-name="レイヤー 1" xmlns="http://www.w3.org/2000/svg" xmlns:xlink="http://www.w3.org/1999/xlink" viewBox="0 0 259.52 204.12"><defs><style>.cls-1,.cls-11,.cls-6,.cls-8{fill:none;}.cls-2,.cls-9{fill:#f5bb1b;}.cls-10,.cls-3,.cls-4,.cls-5{fill:#fff;}.cls-13,.cls-3,.cls-4{isolation:isolate;}.cls-3{opacity:0.6;}.cls-4{opacity:0.4;}.cls-6{stroke:#ccc;stroke-width:1.25px;}.cls-10,.cls-11,.cls-6,.cls-7,.cls-8,.cls-9{stroke-linecap:round;stroke-linejoin:round;}.cls-15,.cls-7{fill:#273238;}.cls-10,.cls-11,.cls-7,.cls-9{stroke:#273238;}.cls-8{stroke:#fff;}.cls-12{clip-path:url(#clip-path);}.cls-13{fill:#040000;opacity:0.15;}.cls-14{clip-path:url(#clip-path-2);}.cls-16{clip-path:url(#clip-path-3);}.cls-17{clip-path:url(#clip-path-4);}.cls-18{clip-path:url(#clip-path-5);}</style><clipPath id="clip-path"><path class="cls-1" d="M80.31,147.65S84.9,157.84,86,159.9s2.37,7.9,2.52,11.37,0,4.19-.78,4.11-1.11-4.42-1.11-5.14v-1.1s-.4,4.11-1,4.9-1.5,1.66-1.58,1.19a8.25,8.25,0,0,1,.47-2.45,9.21,9.21,0,0,0,.16-2.77s-.47,2.21-1.58,3-2.29,1.11-1.9.48,1.43-1.35,1.66-2.14a9.08,9.08,0,0,0,.24-2.21A15.28,15.28,0,0,1,80.94,172c-.63.4-.63-.47-.24-.86A16.88,16.88,0,0,0,82,168a11,11,0,0,1-1.35-2.6c-1.1-2.45-1.72-6.72-2.05-8.38s-.95-3.87-.95-3.87L71.54,143s-.48-2.45,1.81-2.87S80.31,147.65,80.31,147.65Z"/></clipPath><clipPath id="clip-path-2"><path class="cls-1" d="M86,162.9a34,34,0,0,1,.71,5.61c-.08,1.73.32,2.61-.24,2.61s-.71-.4-1.26-2.14a19.6,19.6,0,0,1-.71-3.95s-2,0-2.69-2.92"/></clipPath><clipPath id="clip-path-3"><path class="cls-1" d="M121,148.67a33.36,33.36,0,0,1-6.89-.62c-2.36-.63-13.48-3.74-19.88-6.08s-13.86-4.86-13.86-4.86a22.85,22.85,0,0,1-2.66-3.74c-.7-1.15-2.55-4.9-4.49-8.89-6.22,1.63-9.36,4.59-10.9,6.89A151.29,151.29,0,0,0,72.9,144.78c2.19,2.49,7.65,3.12,12.5,3.74s25.31,2,25.31,2a25.46,25.46,0,0,0,5.62,2.49c2.5.63,3.9.78,5.62.16s5.31-.94,6.41-1.25,1.72-.94,1.25-1.25A75.59,75.59,0,0,0,121,148.67Z"/></clipPath><clipPath id="clip-path-4"><path class="cls-1" d="M82.17,67.25a11.86,11.86,0,0,1,6.39,4.26,11,11,0,0,1,2.14,4.74c.76,4.65-1.86,6.08-1,8.2s1.68,3.2,1,4.22-2.79,1.18-3.13,1.27-1,4-2.36,5.66-6.08-.25-6.08-.25-1.94,3.29-2.54,4.39.58,7.68-.25,10.64-2.79-.25-6.51-4.9S64.43,97,64.6,95.76s3.12-4.22,3.63-5.32a3.35,3.35,0,0,0,.51-2.61c-.26-1-3.21-5.17-3.21-10.48a11,11,0,0,1,9.8-10.81A20.51,20.51,0,0,1,82.17,67.25Z"/></clipPath><clipPath id="clip-path-5"><path class="cls-1" d="M176.21,138.75c.15.45-.29,6.74-.6,17.69-.23,8.4-2.22,23.32-3.14,29.81h31.91c.23-6.58.52-21.63-1.33-27.86-2.4-8.1-5.1-9.76-6-13.34s-2.25-23.39-4.5-30.89-9-12-10-13.64-4.35-11.25-4.35-11.25l-5.69,4.8s4.19,6.75,4.79,8.85-4,7-6.44,12.14-2.87,9.15-.75,12.29A121,121,0,0,1,176.21,138.75Z"/></clipPath></defs><g id="freepik--background-simple--inject-179"><path class="cls-2" d="M235.84,186.14h-207S20.58,188.82,16,167.45s18.83-27.1,24.39-45.56S21.74,107.31,23.78,82.05,59.13,56.3,75.28,59.71,89.42,51.45,108.1,32s47-17.48,61.08-2.42,9.6,30.6,27.27,30.6,33.83,3.4,44.43,36-8.77,47.42-8.42,62.09A157,157,0,0,0,235.84,186.14Z"/><path class="cls-3" d="M235.84,186.14h-207S20.58,188.82,16,167.45s18.83-27.1,24.39-45.56S21.74,107.31,23.78,82.05,59.13,56.3,75.28,59.71,89.42,51.45,108.1,32s47-17.48,61.08-2.42,9.6,30.6,27.27,30.6,33.83,3.4,44.43,36-8.77,47.42-8.42,62.09A157,157,0,0,0,235.84,186.14Z"/></g><g id="freepik--Pictures--inject-179"><rect class="cls-2" x="108.66" y="28.99" width="39.03" height="56.25"/><rect class="cls-4" x="108.66" y="28.99" width="39.03" height="56.25"/><rect class="cls-5" x="114.24" y="37.02" width="27.88" height="40.18"/><rect class="cls-2" x="50.5" y="62.66" width="27.08" height="39.03"/><rect class="cls-4" x="50.5" y="62.66" width="27.08" height="39.03"/><rect class="cls-5" x="54.37" y="68.24" width="19.34" height="27.88"/><rect class="cls-2" x="181.94" y="62.66" width="27.08" height="39.03"/><rect class="cls-4" x="181.94" y="62.66" width="27.08" height="39.03"/><rect class="cls-5" x="185.81" y="68.24" width="19.34" height="27.88"/></g><g id="freepik--Plants--inject-179"><path class="cls-5" d="M178.74,140.75c-1.15,2.87-2.37.57-2.18-11.52.09-5.66.49-17.22,6.75-14.67,6,2.44-1.91,19.54-1.91,19.54Zm8.61,1.72s13-13.6,8.15-17.86c-5.1-4.45-9.23,6.36-11.15,11.69-4.1,11.36-3.72,13.94-1.68,11.59Zm2.74,12.2s11.95-8.5,8.83-12.48c-3.25-4.13-8,3.54-10.22,7.33-4.78,8.09-4.86,10.12-3,8.61Zm3.24,12.17s11.95-8.51,8.82-12.48c-3.25-4.13-8,3.53-10.21,7.33-4.78,8.08-4.87,10.12-3,8.61Zm-20.86-24.46s-16.72-8.7-19.44-2.81c-2.83,6.14,8.7,7.07,14.35,7.41,12.06.75,14.43-.34,11.6-1.64Zm2.35,9.57s-18.11-5.2-19.61,1.12c-1.55,6.57,9.94,5.17,15.55,4.41,12-1.67,14.06-3.2,11-3.92ZM179,162.4s-15.44-4-16.56,1.39c-1.15,5.6,8.53,4.16,13.25,3.37,10.07-1.69,11.82-3,9.25-3.56Zm2.41,8.61s-14.92-5.6-16.6-.38c-1.75,5.45,8,5.05,12.81,4.76,10.2-.61,12-1.76,9.57-2.56Zm-10-43.7s-6.82-21.18-14.55-17.33c-8,4,1.25,13.55,5.9,18.13,9.93,9.76,13,10.43,11.7,7Z"/><path class="cls-6" d="M160.06,117.55s17.12,20.88,21.21,31.34c4.71,12,7.91,25.54,8.55,36.73"/><line class="cls-6" x1="177.86" y1="142.06" x2="180.25" y2="122.15"/><line class="cls-6" x1="181.27" y1="148.88" x2="189.88" y2="132.14"/><line class="cls-6" x1="180.02" y1="146.4" x2="161.98" y2="142.73"/><line class="cls-6" x1="184.66" y1="158.38" x2="195.26" y2="146.3"/><line class="cls-6" x1="183.18" y1="154.4" x2="169.57" y2="154.28"/><line class="cls-6" x1="185.8" y1="164.29" x2="175.36" y2="164.69"/><line class="cls-6" x1="187.94" y1="170.59" x2="193.53" y2="163.14"/><line class="cls-6" x1="188.36" y1="173.36" x2="176.14" y2="172.75"/><path class="cls-5" d="M222.37,157.24c-2.11.79-1.46-1,5-6.82,3.05-2.73,9.4-8.2,11.12-3.62,1.66,4.4-11.33,8.61-11.33,8.61Zm3.31,5.41s13.65.26,13.51-4.44c-.14-4.89-7.92-1.78-11.69-.19-8,3.41-9.25,4.88-7,4.81Zm-5.14,7.46s10.4,2.18,11-1.44-5.8-2.5-8.92-1.83c-6.65,1.43-7.77,2.38-6,2.66Zm-4.86,7.71s10.4,2.18,11-1.44-5.8-2.51-8.92-1.84c-6.65,1.43-7.8,2.39-6.08,2.66Zm2.76-23.12s-3.59-13.17-8-11.72c-4.66,1.51.52,8.1,3.11,11.28,5.53,6.78,7.28,7.5,6.58,5.36Zm-3.93,6s-6.14-12.19-10.23-9.89c-4.27,2.42,2.12,7.85,5.28,10.44,6.77,5.54,8.61,5.91,7.52,3.95ZM211,168s-5.47-10.16-8.88-8.11,2,6.58,4.72,8.7c5.85,4.53,7.42,4.79,6.44,3.16Zm-3.4,5.53s-4.36-10.69-8-9,1.27,6.75,3.77,9.16c5.34,5.12,6.89,5.56,6.07,3.83Zm18.32-26.79s7.91-14,2.06-16.25c-6.08-2.3-6.59,7.33-6.74,12.05-.31,10.08.84,12.06,2,9.68Z"/><path class="cls-6" d="M225.53,135.92s-2.7,19.37-6.24,26.68a96.32,96.32,0,0,1-15.88,23.2"/><line class="cls-6" x1="221.24" y1="157.42" x2="233" y2="148.9"/><line class="cls-6" x1="219.29" y1="162.59" x2="232.42" y2="158.94"/><line class="cls-6" x1="219.99" y1="160.7" x2="213.08" y2="149.3"/><line class="cls-6" x1="215.9" y1="169.06" x2="227.54" y2="168.76"/><line class="cls-6" x1="217.29" y1="166.31" x2="210.66" y2="159.01"/><line class="cls-6" x1="213.32" y1="172.56" x2="207.97" y2="167.21"/><line class="cls-6" x1="211.02" y1="176.8" x2="217.73" y2="176.12"/><line class="cls-6" x1="209.74" y1="178.38" x2="204.07" y2="171.59"/><path class="cls-5" d="M46.48,140.75c-1.15,2.87-2.36.57-2.18-11.52.1-5.66.49-17.22,6.75-14.67,6,2.44-1.91,19.54-1.91,19.54Zm8.61,1.72s13-13.6,8.16-17.86C58.15,120.16,54,131,52.09,136.3c-4.09,11.36-3.72,13.94-1.68,11.59Zm2.75,12.19s12-8.51,8.82-12.48c-3.25-4.13-8,3.54-10.22,7.33-4.78,8.09-4.86,10.12-3,8.61Zm3.24,12.17s11.93-8.52,8.81-12.48c-3.25-4.13-8,3.53-10.21,7.32-4.79,8.09-4.87,10.12-3,8.61ZM40.2,142.37s-16.71-8.71-19.43-2.81c-2.83,6.14,8.7,7.07,14.35,7.41,12.05.75,14.41-.34,11.59-1.64Zm2.35,9.57s-18.11-5.2-19.6,1.12c-1.55,6.57,9.93,5.17,15.54,4.41,12-1.67,14.07-3.21,11-3.92Zm4.15,10.45s-15.44-4-16.56,1.39c-1.14,5.6,8.53,4.16,13.25,3.37,10.08-1.69,11.82-3,9.25-3.56ZM49.11,171s-14.92-5.61-16.6-.38c-1.75,5.45,8,5,12.81,4.76,10.2-.61,12-1.76,9.57-2.56Zm-10-43.69S32.31,106.15,24.55,110c-8,4,1.25,13.55,5.9,18.12,9.93,9.76,13,10.44,11.7,7Z"/><path class="cls-6" d="M27.81,117.55S44.92,138.43,49,148.89c4.7,12,7.91,25.54,8.54,36.73"/><line class="cls-6" x1="45.61" y1="142.06" x2="47.99" y2="122.15"/><line class="cls-6" x1="49.02" y1="148.88" x2="57.63" y2="132.14"/><line class="cls-6" x1="47.76" y1="146.4" x2="29.73" y2="142.73"/><line class="cls-6" x1="52.4" y1="158.38" x2="63" y2="146.3"/><line class="cls-6" x1="50.92" y1="154.4" x2="37.31" y2="154.28"/><line class="cls-6" x1="53.55" y1="164.29" x2="43.1" y2="164.69"/><line class="cls-6" x1="55.69" y1="170.59" x2="61.28" y2="163.14"/><line class="cls-6" x1="56.1" y1="173.36" x2="43.89" y2="172.75"/><path class="cls-5" d="M90.11,157.24c-2.1.79-1.46-1,5-6.82,3.06-2.73,9.41-8.2,11.13-3.62C108,151.2,95,155.41,95,155.41Zm3.32,5.41s13.64.26,13.51-4.44c-.15-4.89-7.92-1.78-11.7-.19-8,3.41-9.25,4.88-7,4.81Zm-5.14,7.46s10.39,2.18,11-1.44-5.8-2.5-8.92-1.83c-6.67,1.43-7.77,2.37-6,2.66Zm-4.89,7.71s10.4,2.18,11-1.44-5.8-2.51-8.92-1.84c-6.65,1.44-7.77,2.39-6,2.67Zm2.76-23.12s-3.58-13.17-8-11.72c-4.66,1.51.52,8.1,3.11,11.28,5.53,6.78,7.27,7.5,6.57,5.36Zm-3.93,6S76.09,148.47,72,150.77c-4.27,2.42,2.12,7.85,5.29,10.44,6.77,5.54,8.61,5.91,7.51,3.95ZM78.71,168s-5.47-10.16-8.88-8.11,2,6.58,4.72,8.7c5.85,4.53,7.42,4.79,6.44,3.16Zm-3.4,5.53s-4.36-10.69-8-9,1.27,6.75,3.77,9.16c5.34,5.12,6.89,5.56,6.07,3.83Zm18.32-26.79s7.92-14,2.07-16.25c-6.09-2.3-6.6,7.33-6.75,12.05-.3,10.08.84,12.06,2,9.68Z"/><path class="cls-6" d="M93.27,135.92S90.58,155.29,87,162.6a96.29,96.29,0,0,1-15.87,23.2"/><line class="cls-6" x1="88.98" y1="157.42" x2="100.74" y2="148.9"/><line class="cls-6" x1="87.03" y1="162.59" x2="100.16" y2="158.94"/><line class="cls-6" x1="87.73" y1="160.7" x2="80.82" y2="149.3"/><line class="cls-6" x1="83.64" y1="169.06" x2="95.28" y2="168.76"/><line class="cls-6" x1="85.03" y1="166.31" x2="78.4" y2="159.01"/><line class="cls-6" x1="81.06" y1="172.56" x2="75.71" y2="167.21"/><line class="cls-6" x1="78.76" y1="176.8" x2="85.48" y2="176.12"/><line class="cls-6" x1="77.49" y1="178.38" x2="71.81" y2="171.59"/></g><g id="freepik--Characters--inject-179"><path class="cls-7" d="M118.43,67.44a13.32,13.32,0,0,0-13,3.45c-5.62,5.78-2.66,17.34-2.66,21.4s-5.17,29.84-5.17,29.84-2.5,9.38,4.38,15.32,19.58,5.42,25-6-.32-27.74-.32-36.16,1.25-14.06-.63-20.15A11.85,11.85,0,0,0,118.43,67.44Z"/><path class="cls-8" d="M116.25,71.82s-7.08,8.81-11.86,11.29"/><path class="cls-8" d="M110.13,71.06s-3.64,8.8-6.89,11.29"/><path class="cls-9" d="M130.51,101.33a5.81,5.81,0,0,1,2.45,4.13c.42,2.93-2.7,9.69-3.32,13a116.93,116.93,0,0,0-1.15,12.25c0,1.05,3.56,16.52,4.19,20.29s-.32,12.63-.84,13.28-2-2.41-2.09-4.4-4-17.25-5.44-21.85a34.22,34.22,0,0,1-1-10.66s2-13.91,2-19.24.16-9.32.16-9.32Z"/><path class="cls-10" d="M131.83,164.29c.52-.62,1.46-9.51.84-13.27s-4.18-19.24-4.18-20.27a122.46,122.46,0,0,1,1.15-12.23,27.14,27.14,0,0,1,.89-3.17,9,9,0,0,1-4,.9c-.73,0-1.44.67-2.12,1.81-.58,4.86-1.2,9.35-1.2,9.35a34.23,34.23,0,0,0,1,10.66c1.46,4.61,5.33,19.87,5.43,21.85S131.31,164.92,131.83,164.29Z"/><path class="cls-9" d="M110.84,186.25c.23-2.57.71-7.81,1-9.83.42-2.71,1.25-8.26,1.25-8.26l2.12,18.09h14.51c.52-3.95,1.84-14.52,2.09-22,.31-9.3-6.69-28.54-6.89-30s.21-5.74.21-7,3.65-9.27,4-13.35,1.25-5.34,1.25-5.34l.53-6.88c-.32-.11-5-3.8-9.71-5.17a17.69,17.69,0,0,0-8.79-.21s-6.79,3-10.24,4.5-6.29,4.28-6.37,7.94,6.68,19.24,7.31,20.39-1.36,5.23-2.19,7.32a146.15,146.15,0,0,0-6.59,18c-2,7.14-.65,26.32-.22,31.78Z"/><path class="cls-11" d="M114.1,126.28s5.36.64,10.73-4.51"/><path class="cls-10" d="M117.82,111.29c1.56-.42,3.56-6.89,3.76-10.25.12-1.88.23-3.28.18-4.31l-.57-.19a17.69,17.69,0,0,0-8.79-.21l-2.76,1.23a8.76,8.76,0,0,0,.46,4.42C111.23,105.11,116.25,111.7,117.82,111.29Z"/><path class="cls-10" d="M110.81,93.12s.53,6.16.85,7.67,3.49,7.46,5.28,7.14,2.94-8.11,2.94-8.86.22-6.89.22-6.89A9.55,9.55,0,0,1,110.81,93.12Z"/><path class="cls-9" d="M100.46,101.87a8.55,8.55,0,0,0-6.69,5c-2.4,4.81.42,8,1.36,9.93s3.56,9.62,4.39,11.93,2.51,5,5.44,8.78,9.09,11.81,9.09,11.81l1.68,2.93a44.19,44.19,0,0,0,3.13,3.34c.31.11,2.2,2.51,2.93,1s0-6.69,0-6.69,1.15,2.3,1.57,1.77-.11-1.67-.52-2.92-4.28-3.66-5.13-3.77-1.88-1.15-3.13-3.65-2.2-6.89-4.18-9.52-4.6-6.48-4.6-6.48-2.92-10.46-2.92-10.88a11.63,11.63,0,0,0-.84-5.74"/><path class="cls-10" d="M117.71,145.05c-.83-.1-1.88-1.15-3.13-3.65s-2.2-6.89-4.18-9.52-4.6-6.48-4.6-6.48-2-7.08-2.68-9.82c-3.84-.54-6.38.23-8,1.22h0c.94,1.88,3.56,9.62,4.39,11.92s2.51,5,5.44,8.78,9.09,11.82,9.09,11.82l1.68,2.92a44.21,44.21,0,0,0,3.13,3.35c.31.1,2.2,2.51,2.93,1s0-6.69,0-6.69,1.15,2.29,1.57,1.77-.11-1.67-.52-2.93S118.56,145.16,117.71,145.05Z"/><path class="cls-7" d="M110.84,186.25c.23-2.57.71-7.81,1-9.83.42-2.71,1.25-8.26,1.25-8.26l2.12,18.09h14.51c.52-3.95,1.84-14.52,2.09-22,.13-3.87-1-9.47-2.4-14.8-12.27,2.69-26.17.75-33.4-.66-.6,1.8-1.2,3.69-1.72,5.64-2,7.14-.65,26.32-.22,31.78Z"/><path class="cls-10" d="M107.18,84s-.93-.42-.93,1.46,2.08,3.12,2.08,3.12Z"/><path class="cls-10" d="M117.92,73.64s-3.34,4.71-6.27,6.59A49,49,0,0,1,107,83S108.41,89,109,91s2.5,5.45,6.26,5.66,5.44-3.77,6.18-5.66a8.09,8.09,0,0,0,.66-3.07,4.41,4.41,0,0,0,2-3c.2-2-.32-1.89-.32-1.89s-.57.65-1.82-.32C121,81.91,117.59,76.47,117.92,73.64Z"/><path class="cls-11" d="M110,85.53a3.55,3.55,0,0,1,3.63,0"/><path class="cls-11" d="M116.62,85.73a3,3,0,0,1,3.64-.3"/><path class="cls-11" d="M109.66,83.17s.78-1.47,3.44-.78"/><path class="cls-11" d="M116.62,82.49a3,3,0,0,1,4,.39"/><path class="cls-11" d="M116.33,89s-1.57,1.08-2.26,0"/><path class="cls-11" d="M113.48,91.22s2,.79,3-.09"/><path class="cls-5" d="M80.31,147.65S84.9,157.84,86,159.9s2.37,7.9,2.52,11.37,0,4.19-.78,4.11-1.11-4.42-1.11-5.14v-1.1s-.4,4.11-1,4.9-1.5,1.66-1.58,1.19a8.25,8.25,0,0,1,.47-2.45,9.21,9.21,0,0,0,.16-2.77s-.47,2.21-1.58,3-2.29,1.11-1.9.48,1.43-1.35,1.66-2.14a9.08,9.08,0,0,0,.24-2.21A15.28,15.28,0,0,1,80.94,172c-.63.4-.63-.47-.24-.86A16.88,16.88,0,0,0,82,168a11,11,0,0,1-1.35-2.6c-1.1-2.45-1.72-6.72-2.05-8.38s-.95-3.87-.95-3.87L71.54,143s-.48-2.45,1.81-2.87S80.31,147.65,80.31,147.65Z"/><g class="cls-12"><path class="cls-13" d="M80.31,147.65S84.9,157.84,86,159.9s2.37,7.9,2.52,11.37,0,4.19-.78,4.11-1.11-4.42-1.11-5.14v-1.1s-.4,4.11-1,4.9-1.5,1.66-1.58,1.19a8.25,8.25,0,0,1,.47-2.45,9.21,9.21,0,0,0,.16-2.77s-.47,2.21-1.58,3-2.29,1.11-1.9.48,1.43-1.35,1.66-2.14a9.08,9.08,0,0,0,.24-2.21A15.28,15.28,0,0,1,80.94,172c-.63.4-.63-.47-.24-.86A16.88,16.88,0,0,0,82,168a11,11,0,0,1-1.35-2.6c-1.1-2.45-1.72-6.72-2.05-8.38s-.95-3.87-.95-3.87L71.54,143s-.48-2.45,1.81-2.87S80.31,147.65,80.31,147.65Z"/></g><path class="cls-11" d="M80.31,147.65S84.9,157.84,86,159.9s2.37,7.9,2.52,11.37,0,4.19-.78,4.11-1.11-4.42-1.11-5.14v-1.1s-.4,4.11-1,4.9-1.5,1.66-1.58,1.19a8.25,8.25,0,0,1,.47-2.45,9.21,9.21,0,0,0,.16-2.77s-.47,2.21-1.58,3-2.29,1.11-1.9.48,1.43-1.35,1.66-2.14a9.08,9.08,0,0,0,.24-2.21A15.28,15.28,0,0,1,80.94,172c-.63.4-.63-.47-.24-.86A16.88,16.88,0,0,0,82,168a11,11,0,0,1-1.35-2.6c-1.1-2.45-1.72-6.72-2.05-8.38s-.95-3.87-.95-3.87L71.54,143s-.48-2.45,1.81-2.87S80.31,147.65,80.31,147.65Z"/><path class="cls-5" d="M86,162.9a34,34,0,0,1,.71,5.61c-.08,1.73.32,2.61-.24,2.61s-.71-.4-1.26-2.14a19.6,19.6,0,0,1-.71-3.95s-2,0-2.69-2.92"/><g class="cls-14"><path class="cls-13" d="M86,162.9a34,34,0,0,1,.71,5.61c-.08,1.73.32,2.61-.24,2.61s-.71-.4-1.26-2.14a19.6,19.6,0,0,1-.71-3.95s-2,0-2.69-2.92"/></g><path class="cls-11" d="M86,162.9a34,34,0,0,1,.71,5.61c-.08,1.73.32,2.61-.24,2.61s-.71-.4-1.26-2.14a19.6,19.6,0,0,1-.71-3.95s-2,0-2.69-2.92"/><path class="cls-10" d="M50.75,186.25H79.84c.14-5.44,1.09-41,1.38-42.58s1.88-18,2-24.36-2.66-15.62-2.66-16.25-.46-4.53-4.83-7.81S67.94,92,67,92.44a61.85,61.85,0,0,0-8.91,8.12c-5.46,5.78-7.34,10.47-7.34,19.37A92.13,92.13,0,0,0,52.17,136s-1.73,27.8-1.73,28.43S50.7,182.53,50.75,186.25Z"/><path class="cls-15" d="M64,123.4c.62,0,1.23,0,1.85-.11,6.69-.73,12.51-7.57,16.35-13.48-.18-.86-.36-1.68-.53-2.43-3.63,5.91-9.48,13.49-16,14.2-9.08,1-13.2-6.17-14.35-8.48q-.24,1.32-.36,2.79C52.93,119,57,123.4,64,123.4Z"/><path class="cls-15" d="M61.77,109.59l1.66.44a36,36,0,0,1,9.76-16.41,15.49,15.49,0,0,0-1.72-.76A37.34,37.34,0,0,0,61.77,109.59Z"/><path class="cls-15" d="M63.4,117.82c.39-.2,8.53-4.43,17.11-15.49a8.93,8.93,0,0,0-.63-2c-8.64,11.48-17.16,15.92-17.26,16Z"/><path class="cls-15" d="M54.92,111.6l1.72-.26s-.5-4.12,3.5-12.85c-.64.63-1.31,1.32-2,2.07-.46.49-.89,1-1.29,1.44C54.48,108.37,54.89,111.42,54.92,111.6Z"/><path class="cls-15" d="M69.12,137.11c-9.9,1.28-14.93-.79-17.18-2.39.13.84.23,1.3.23,1.3s0,.31-.06.86c2.21,1.21,5.74,2.36,11.16,2.36a47.37,47.37,0,0,0,6.07-.42,32.46,32.46,0,0,0,12.86-4.55c.07-.72.13-1.46.2-2.21A30.66,30.66,0,0,1,69.12,137.11Z"/><path class="cls-15" d="M68.6,147.7a43.15,43.15,0,0,0,12.83-5.59c.07-.62.15-1.37.24-2.24A42.49,42.49,0,0,1,68.19,146c-6.66,1.63-13.13-.19-16.55-1.51,0,.58-.07,1.2-.11,1.82a32.47,32.47,0,0,0,11.07,2.07A25.25,25.25,0,0,0,68.6,147.7Z"/><path class="cls-15" d="M50.77,159c0,.62-.08,1.21-.11,1.73a60,60,0,0,0,13.55,1.64,44,44,0,0,0,16.41-3c0-.63,0-1.26.06-1.88C69.16,162.32,56.83,160.43,50.77,159Z"/><path class="cls-15" d="M69.86,153.27a35.31,35.31,0,0,1-18.72-.57c0,.6-.07,1.2-.1,1.79A34.72,34.72,0,0,0,61.37,156a40.43,40.43,0,0,0,8.9-1,44.34,44.34,0,0,0,10.63-4c0-.72,0-1.39.07-2A42.1,42.1,0,0,1,69.86,153.27Z"/><path class="cls-15" d="M65,129c-7.06.36-11.62-2.25-14.15-4.39,0,.79.09,1.56.15,2.29a21.39,21.39,0,0,0,12.7,3.86c.45,0,.92,0,1.39,0a25.88,25.88,0,0,0,18-8.75c0-1,.1-1.92.11-2.68v-.12C79.21,124.22,73.33,128.61,65,129Z"/><path class="cls-9" d="M76.77,96.09c-.32-.28-.65-.58-1-.84C71.38,92,67.94,92,67,92.44a47.79,47.79,0,0,0-5.17,4.37,4.74,4.74,0,0,0,.94,4.06c3,3.75,12.63,18.12,15.16,15s1.87-11.71-.94-19.22C76.93,96.46,76.84,96.27,76.77,96.09Z"/><path class="cls-10" d="M67.65,112.59s8.44,18,10.16,20.78a22.21,22.21,0,0,0,2.65,3.74s7.46,2.51,13.86,4.86,17.53,5.43,19.86,6.08a31.16,31.16,0,0,0,6.89.62,77.68,77.68,0,0,1,8.61,2c.49.31-.15.93-1.25,1.25s-4.68.62-6.41,1.24-3.12.47-5.61-.15a26.26,26.26,0,0,1-5.63-2.5s-20.5-1.43-25.34-2S75.11,147.3,73,144.8a146.7,146.7,0,0,1-12-15.53c-2.94-4.44-8.31-10.68-6.28-16.34"/><path class="cls-5" d="M121,148.67a33.36,33.36,0,0,1-6.89-.62c-2.36-.63-13.48-3.74-19.88-6.08s-13.86-4.86-13.86-4.86a22.85,22.85,0,0,1-2.66-3.74c-.7-1.15-2.55-4.9-4.49-8.89-6.22,1.63-9.36,4.59-10.9,6.89A151.29,151.29,0,0,0,72.9,144.78c2.19,2.49,7.65,3.12,12.5,3.74s25.31,2,25.31,2a25.46,25.46,0,0,0,5.62,2.49c2.5.63,3.9.78,5.62.16s5.31-.94,6.41-1.25,1.72-.94,1.25-1.25A75.59,75.59,0,0,0,121,148.67Z"/><g class="cls-16"><path class="cls-13" d="M121,148.67a33.36,33.36,0,0,1-6.89-.62c-2.36-.63-13.48-3.74-19.88-6.08s-13.86-4.86-13.86-4.86a22.85,22.85,0,0,1-2.66-3.74c-.7-1.15-2.55-4.9-4.49-8.89-6.22,1.63-9.36,4.59-10.9,6.89A151.29,151.29,0,0,0,72.9,144.78c2.19,2.49,7.65,3.12,12.5,3.74s25.31,2,25.31,2a25.46,25.46,0,0,0,5.62,2.49c2.5.63,3.9.78,5.62.16s5.31-.94,6.41-1.25,1.72-.94,1.25-1.25A75.59,75.59,0,0,0,121,148.67Z"/></g><path class="cls-11" d="M121,148.67a33.36,33.36,0,0,1-6.89-.62c-2.36-.63-13.48-3.74-19.88-6.08s-13.86-4.86-13.86-4.86a22.85,22.85,0,0,1-2.66-3.74c-.7-1.15-2.55-4.9-4.49-8.89-6.22,1.63-9.36,4.59-10.9,6.89A151.29,151.29,0,0,0,72.9,144.78c2.19,2.49,7.65,3.12,12.5,3.74s25.31,2,25.31,2a25.46,25.46,0,0,0,5.62,2.49c2.5.63,3.9.78,5.62.16s5.31-.94,6.41-1.25,1.72-.94,1.25-1.25A75.59,75.59,0,0,0,121,148.67Z"/><path class="cls-9" d="M79.84,186.25c.07-2.71.34-12.95.63-22.71a48.44,48.44,0,0,1-12.89,3.1c-9.19,1.07-14.48-1.15-17.1-2.87,0,.38,0,.63,0,.68,0,.57.25,18.08.3,21.81Z"/><path class="cls-11" d="M72.52,184.94c-1.42-5.4,2-12.29-3-15.86"/><line class="cls-11" x1="72.52" y1="172.52" x2="78.91" y2="166.38"/><path class="cls-11" d="M56.49,172.56l-.17,12.38"/><line class="cls-11" x1="56.55" y1="168.1" x2="56.52" y2="170.36"/><path class="cls-5" d="M82.17,67.25a11.86,11.86,0,0,1,6.39,4.26,11,11,0,0,1,2.14,4.74c.76,4.65-1.86,6.08-1,8.2s1.68,3.2,1,4.22-2.79,1.18-3.13,1.27-1,4-2.36,5.66-6.08-.25-6.08-.25-1.94,3.29-2.54,4.39.58,7.68-.25,10.64-2.79-.25-6.51-4.9S64.43,97,64.6,95.76s3.12-4.22,3.63-5.32a3.35,3.35,0,0,0,.51-2.61c-.26-1-3.21-5.17-3.21-10.48a11,11,0,0,1,9.8-10.81A20.51,20.51,0,0,1,82.17,67.25Z"/><g class="cls-17"><path class="cls-13" d="M82.17,67.25a11.86,11.86,0,0,1,6.39,4.26,11,11,0,0,1,2.14,4.74c.76,4.65-1.86,6.08-1,8.2s1.68,3.2,1,4.22-2.79,1.18-3.13,1.27-1,4-2.36,5.66-6.08-.25-6.08-.25-1.94,3.29-2.54,4.39.58,7.68-.25,10.64-2.79-.25-6.51-4.9S64.43,97,64.6,95.76s3.12-4.22,3.63-5.32a3.35,3.35,0,0,0,.51-2.61c-.26-1-3.21-5.17-3.21-10.48a11,11,0,0,1,9.8-10.81A20.51,20.51,0,0,1,82.17,67.25Z"/></g><path class="cls-11" d="M82.17,67.25a11.86,11.86,0,0,1,6.39,4.26,11,11,0,0,1,2.14,4.74c.76,4.65-1.86,6.08-1,8.2s1.68,3.2,1,4.22-2.79,1.18-3.13,1.27-1,4-2.36,5.66-6.08-.25-6.08-.25-1.94,3.29-2.54,4.39.58,7.68-.25,10.64-2.79-.25-6.51-4.9S64.43,97,64.6,95.76s3.12-4.22,3.63-5.32a3.35,3.35,0,0,0,.51-2.61c-.26-1-3.21-5.17-3.21-10.48a11,11,0,0,1,9.8-10.81A20.51,20.51,0,0,1,82.17,67.25Z"/><path class="cls-7" d="M83.18,71.1a6,6,0,0,1,4.42-.69,12,12,0,0,0-5.43-3.16,20.51,20.51,0,0,0-6.84-.71,11,11,0,0,0-9.8,10.81c0,5.32,3,9.46,3.21,10.48a2.51,2.51,0,0,1,.06,1c4,.8,5.33-1.21,5.33-1.21a3.45,3.45,0,0,1-2.62-.75c-1.18-1-1.18-4.91.26-6.68s2.87.68,2.87,2.11.67,2.62,1.35,2.45S76.5,83,76.75,82s3.21-2.53,3.89-3.37S80.3,77,79.2,75.74,79,73.13,83.18,71.1Z"/><path class="cls-11" d="M74,87.91a6.28,6.28,0,0,0,1.44,3.88"/><path class="cls-11" d="M87.12,83.63a4.62,4.62,0,0,0-2.27-.34"/><path class="cls-11" d="M88.37,81.59s-1.25-2.15-3.63-.45"/><path class="cls-11" d="M85.44,91.11a2.31,2.31,0,0,1-2.38-1.58"/><path class="cls-15" d="M69.06,115.62,68,113.32c-6.94.12-11,2.71-13.3,5.17a16.77,16.77,0,0,0,.93,2.38C57.42,118.52,61.29,115.45,69.06,115.62Z"/><path class="cls-15" d="M71.46,120.66l-1.08-2.26A22.63,22.63,0,0,0,57,123.3c.4.67.83,1.32,1.26,2A20.7,20.7,0,0,1,71.46,120.66Z"/><path class="cls-10" d="M146.18,136c.72,2.16,1.2,9.86,1.2,13.95,0,3.41-2.18,28.21-2.9,36.3h32.61c.39-7.9,1.56-31.61,1.56-34.61,0-3.61-1.21-18.41.36-23.58s3.36-18.76.57-23-13.2-6.61-16.35-7.69-7.82-1.69-10.1-.58a62,62,0,0,0-10.1,7.1,15.93,15.93,0,0,0-4.81,13.59C138.93,122,145.45,133.84,146.18,136Z"/><path class="cls-15" d="M174.51,101.32a43.53,43.53,0,0,0-4.31-1.73,94.73,94.73,0,0,1-24.41,35.49c.18.39.31.71.39.93a25,25,0,0,1,.7,4.3A98.28,98.28,0,0,0,174.51,101.32Z"/><path class="cls-15" d="M180.87,117a36.47,36.47,0,0,0-.16-8.61c-6.69,11.31-18.28,28.57-33.34,42.07,0,1.19-.19,3.51-.41,6.45C161.62,144.75,173.21,129.07,180.87,117Z"/><path class="cls-7" d="M177.09,186.25c.28-5.62.95-19.25,1.31-27.73-15.87,3-27,.15-31.46-1.41-.68,8.94-1.94,23.33-2.46,29.14Z"/><ellipse class="cls-9" cx="157.24" cy="103.52" rx="7.89" ry="7.63"/><path class="cls-10" d="M150,93.91a36.85,36.85,0,0,1,1.32,7.46c0,2.77,3,9.15,7.94,6.26s2.4-9.5,1.56-11.55a33.28,33.28,0,0,1-1.44-4.81,6.07,6.07,0,0,1-4.59,3A17.9,17.9,0,0,1,150,93.91Z"/><path class="cls-7" d="M141.9,76.89a4.54,4.54,0,0,0,.2,3.73l2.46,3.93-.2-9.11S142.31,73.78,141.9,76.89Z"/><path class="cls-10" d="M144.56,82.48s-1.65.62-.83,3.31,2.07,1.86,2.07,1.86Z"/><path class="cls-10" d="M143.05,77.8s1.45,7.46,2.3,11.18,5.41,7.09,7.81,7.82,5.54-1.92,6.26-3.49a22.21,22.21,0,0,0,1.08-5,4.87,4.87,0,0,0,2.87-3.85c.22-2.77-.48-3.6-1.92-4L160.36,80s.6-4.45-1-7.21-7.09.84-10,1.68S142.69,75,143.05,77.8Z"/><path class="cls-11" d="M150,83.21s-.58,4.33.23,4.69,2.41-.48,2.77-.6"/><path class="cls-11" d="M152.31,90.58A4.46,4.46,0,0,0,157,87.21"/><path class="cls-11" d="M145.94,82.25a2.64,2.64,0,0,1,2.52-1.2"/><path class="cls-11" d="M151.71,80.45s2.41-1.21,3.85.12"/><ellipse class="cls-15" cx="147.97" cy="84.18" rx="0.6" ry="1.21" transform="translate(-12.23 26.58) rotate(-9.86)"/><ellipse class="cls-15" cx="153.26" cy="83.1" rx="0.6" ry="1.21" transform="translate(-11.97 27.47) rotate(-9.86)"/><path class="cls-7" d="M156.76,74.55a47.58,47.58,0,0,1-10,3.4c-5.29,1.08-7.7-.12-7.46-2.77s7.09-8.42,13.34-8.42,8.42,2.87,8.79,5.9a53.58,53.58,0,0,1,0,7.81L160.36,82s.28-1.22-1.45-2.2A4.22,4.22,0,0,1,156.76,74.55Z"/><path class="cls-7" d="M190.23,83.15c1.18.9-.21,4.67,3.67,7.68,8.93,7,14.1,11.65,15,22,1.05,11.25-5,15.62-3.12,19.37s4.37,8.12.41,11.48-10.41,6.25-15.82-1.66-8.33-25.41-10.62-35-6-14.16-5.42-18.32a9.28,9.28,0,0,1,7.8-7.58A10.07,10.07,0,0,1,190.23,83.15Z"/><path class="cls-10" d="M179.47,123.14l-16.69,12.21s-26.73,9.55-28.3,10-9.07,1.81-10.64,2.65-4.59,6.41-5.08,7.75a1,1,0,0,0,1.33,1.33c.36-.37,3.87-3.76,5-3.88l2-.24s-2.78,2.42-2.9,3.15.49.48,1.21.12,3.51-1.33,4.59-3.27a7.35,7.35,0,0,1,3.87-3.75c1.82-.72,25.49-5.85,29.72-6.57s19.48-9.88,20.21-10S181.78,123.14,179.47,123.14Z"/><path class="cls-2" d="M176.21,138.75c.15.45-.29,6.74-.6,17.69-.23,8.4-2.22,23.32-3.14,29.81h31.91c.23-6.58.52-21.63-1.33-27.86-2.4-8.1-5.1-9.76-6-13.34s-2.25-23.39-4.5-30.89-9-12-10-13.64-4.35-11.25-4.35-11.25l-5.69,4.8s4.19,6.75,4.79,8.85-4,7-6.44,12.14-2.87,9.15-.75,12.29A121,121,0,0,1,176.21,138.75Z"/><g class="cls-18"><path class="cls-5" d="M181.09,169.56l5.23,1.14,5.23-1.14,5.23,1.14,5.23-1.14,2.42.52-.05-1.18-2.37-.52-5.23,1.15-5.23-1.15-5.23,1.15-5.23-1.15-5.22,1.15-1.26-.28-.12,1.15,1.38.3Z"/><path class="cls-5" d="M186.87,130.27l-5.23,1.15-5.23-1.15-4.09.9.58,1.05,3.51-.77,5.23,1.15,5.23-1.15,5.23,1.15,3.31-.73c0-.38-.09-.77-.13-1.15l-3.18.7Z"/><path class="cls-5" d="M181.09,178.3l5.23,1.15,5.23-1.15,5.23,1.15L202,178.3l2.53.57v-1.15l-2.54-.57-5.23,1.15-5.23-1.15-5.22,1.15-5.23-1.15-5.23,1.15-2.26-.5c0,.39-.1.77-.14,1.15l2.4.52Z"/><path class="cls-5" d="M204.49,182.05,202,181.5l-5.23,1.15-5.23-1.15-5.23,1.15-5.23-1.15-5.22,1.15-2.82-.62-.15,1.15,3,.64,5.22-1.14,5.23,1.14,5.23-1.14,5.23,1.14,5.23-1.14,2.46.54C204.48,182.84,204.49,182.45,204.49,182.05Z"/><path class="cls-5" d="M169.29,119.06l1.89.42,5.23-1.15,5.23,1.15,5.23-1.15,5.23,1.15,1.56-.35c-.07-.38-.14-.76-.2-1.15l-1.36.3-5.23-1.15-5.23,1.15-5.23-1.15-5.23,1.15-1.55-.34C169.5,118.33,169.39,118.7,169.29,119.06Z"/><path class="cls-5" d="M186.87,121.52l-5.23,1.15-5.23-1.15-5.23,1.15-2.43-.53a7.75,7.75,0,0,0,0,1.18l2.43.53,5.23-1.15,5.23,1.15,5.23-1.15,5.23,1.15,2.23-.49c-.05-.39-.1-.77-.16-1.15l-2.07.45Z"/><path class="cls-5" d="M186.87,125.9l-5.23,1.15-5.23-1.15-5.23,1.15-1.49-.33a7,7,0,0,0,.38.63l.46.73.65.14,5.23-1.14,5.23,1.14,5.23-1.14,5.23,1.14,2.8-.61-.15-1.15-2.65.58Z"/><path class="cls-5" d="M181.09,173.93l5.23,1.15,5.23-1.15,5.23,1.15,5.23-1.15,2.52.57v-1.17l-2.5-.58-5.23,1.15-5.23-1.15-5.23,1.15-5.23-1.15-5.22,1.15-1.73-.38-.13,1.14,1.87.42Z"/></g><path class="cls-11" d="M176.21,138.75c.15.45-.29,6.74-.6,17.69-.23,8.4-2.22,23.32-3.14,29.81h31.91c.23-6.58.52-21.63-1.33-27.86-2.4-8.1-5.1-9.76-6-13.34s-2.25-23.39-4.5-30.89-9-12-10-13.64-4.35-11.25-4.35-11.25l-5.69,4.8s4.19,6.75,4.79,8.85-4,7-6.44,12.14-2.87,9.15-.75,12.29A121,121,0,0,1,176.21,138.75Z"/><path class="cls-11" d="M172.46,129.07s1.93,3.86,8.37,2.36"/><path class="cls-11" d="M190.05,154s-9.65,11.81-14,21.24"/><path class="cls-11" d="M179.76,163.61s-4.09,7.51-5.17,12.23"/><path class="cls-10" d="M174.3,113.9c3.12-1.73,7.1-9.19,8.83-10.56l1.18-1a13.27,13.27,0,0,1-1.8-1.87c-1-1.65-4.35-11.25-4.35-11.25l-5.69,4.8s4.19,6.75,4.79,8.85c.53,1.85-3,5.93-5.52,10.37C172,114.11,172.72,114.77,174.3,113.9Z"/><path class="cls-10" d="M167.44,77.73a12.36,12.36,0,0,0-1,5c.11,1.52.43,2.72-.18,4.22-.35.86-1.56,1.95-1.39,2.95s2.4,1.2,2.4,1.2,2.25,7,3.44,7.19,3.9-.58,7.34-3.45-.74-13.2-3.74-15.89S168.94,75.93,167.44,77.73Z"/><ellipse class="cls-15" cx="168.46" cy="86.02" rx="0.39" ry="1.1"/><path class="cls-11" d="M167.42,83.49s.39-1.56,2-.39"/><path class="cls-11" d="M168.2,92.59s1,.26,2.21-1.15"/><path class="cls-7" d="M170.74,69.78s-5.55.16-6.45,3.75,3.15,6.75,6,8.25,5.4,3.89,5.4,6.44.16,5.55,2.25,8.25a14.48,14.48,0,0,0,10.65,4.8c3.76-.15-.3-9,1.79-15.29s-.57-12.59-4.79-15.29S170.74,69.78,170.74,69.78Z"/><path class="cls-8" d="M204.63,124.22a13.29,13.29,0,0,1-.37,2.33"/><path class="cls-8" d="M169.46,79.1c1,1.72,3,3.56,6.67,4.59,8,2.29,11.1,7.84,11.1,12.63s.38,8.22,8,12.05a17,17,0,0,1,9,11.48"/><path class="cls-8" d="M168.29,75.27a5.52,5.52,0,0,0,.09,1"/><path class="cls-8" d="M179,75.27s9.57,4.79,9.38,11.29.38,12.63,6.31,16.26,12.05,5.93,14.16,13.2"/><path class="cls-10" d="M184.34,110.09s-2.54,1-3.87,5.92,4.11,13.67,5,17.55,1.7,9.79,1.7,9.79-19,15.49-21.78,17.9a56.6,56.6,0,0,0-4.23,4s-6.89,6-7.5,7.26-2.29,7.5-1.69,7.74,1.69-2.42,1.69-2.9a21.87,21.87,0,0,1,1.21-3.15s-1,6.16-1,6.5,1,0,1.09-.49,1.45-5.56,1.45-5.56-.72,5.68-.24,6.31,1.33-3.62,1.33-3.62l1-3.39s-.24,5.92.25,6.17,1.57-5.81,1.57-5.81,2.18-4.35,3-5.81a9.78,9.78,0,0,0,1.09-2.53s11.25-6.17,18.27-9.56a45.3,45.3,0,0,0,13.66-10.76c.73-1.09-.84-16.33-2.05-22.86S190.51,108.37,184.34,110.09Z"/><path class="cls-10" d="M145.05,102.3s-4.33,2.94-7.79,5.74-2.95,8.31-2.95,9.52-.17,6.75-.17,6.75l-2.6,5.54s-4,3.64-4.84,4.5-5.89,10.73-5.89,10.73l-1.21,1.72,6.6.85a56.94,56.94,0,0,1,8.13-7.46c4.31-3.12,7.94-11.73,8.12-12.79a61.31,61.31,0,0,0,1.54-8.83"/><path class="cls-10" d="M142.84,125.55c-2.91-4.78-6.88-4.16-8.65-3.56,0,1.26-.07,2.3-.07,2.3l-2.6,5.53s-4,3.64-4.85,4.51-5.88,10.73-5.88,10.73l-1.21,1.72,6.62.87a56.94,56.94,0,0,1,8.13-7.46c4.31-3.12,7.94-11.73,8.12-12.79C142.51,127.05,142.67,126.4,142.84,125.55Z"/><path class="cls-10" d="M123.28,142.81a61.76,61.76,0,0,0-5.16,4.62c-.87,1.12-1.55,7.67-1.2,8.14s2.75,1.76,3.78.64,4.81-6.51,4.81-6.51-2.87,3.88-.82,3.66,3.23-3.38,4.43-4.81,1-1.6,0-3.67l-1-2.07"/><path class="cls-11" d="M116.92,155.57s2.19-7.46,3.06-8"/><path class="cls-11" d="M118,156.11s2.54-7,3.84-8.46"/><path class="cls-11" d="M119.31,156.61s2.75-6.89,4.55-8.56"/><path class="cls-10" d="M125.51,149.7a7.2,7.2,0,0,0,1.69-2.08"/></g><g id="freepik--Desk--inject-179"><line class="cls-11" x1="22.36" y1="186.25" x2="237.16" y2="186.25"/></g></svg>