<svg id="レイヤー_1" data-name="レイヤー 1" xmlns="http://www.w3.org/2000/svg" xmlns:xlink="http://www.w3.org/1999/xlink" viewBox="0 0 528.34 498.62"><defs><style>.cls-1,.cls-26,.cls-4{fill:none;}.cls-15,.cls-2,.cls-7{fill:#fff;}.cls-12,.cls-2,.cls-23{isolation:isolate;}.cls-2{opacity:0.7;}.cls-16,.cls-23,.cls-3{fill:#93cda0;}.cls-14,.cls-16,.cls-21,.cls-27,.cls-4,.cls-6,.cls-7,.cls-9{stroke:#273238;}.cls-13,.cls-14,.cls-16,.cls-21,.cls-26,.cls-27,.cls-4,.cls-6,.cls-7{stroke-linecap:round;stroke-linejoin:round;}.cls-5{font-size:33px;fill:#231815;font-family:KozGoPr6N-Regular-83pv-RKSJ-H, Kozuka Gothic Pr6N;}.cls-13,.cls-6,.cls-8{fill:#273238;}.cls-10,.cls-14,.cls-9{fill:#c0bfbf;}.cls-9{stroke-miterlimit:10;}.cls-11{clip-path:url(#clip-path);}.cls-12{fill:#040000;opacity:0.15;}.cls-13,.cls-26{stroke:#fff;}.cls-17,.cls-21{fill:#999;}.cls-18{clip-path:url(#clip-path-2);}.cls-19{clip-path:url(#clip-path-3);}.cls-20{clip-path:url(#clip-path-4);}.cls-22{clip-path:url(#clip-path-5);}.cls-23{opacity:0.4;}.cls-24{clip-path:url(#clip-path-6);}.cls-25{clip-path:url(#clip-path-7);}.cls-27{fill:#757575;}</style><clipPath id="clip-path"><path class="cls-1" d="M436.92,262.6s-6.15,26.34-10.63,33.67l-93.17-.12s5-7,8.76-9.45,16.56,1.24,19.08,1.24,46.71-7.08,48.38-7.64,7.06-21.16,7.06-21.16S432.07,259.8,436.92,262.6Z"/></clipPath><clipPath id="clip-path-2"><path class="cls-1" d="M315,288.21a22.88,22.88,0,0,0-3.76-4.94c-3.54-3.17-17.33-41.18-24.69-46.54L280,271.21c1.68,3,6.9,9.88,6.62,11.37s2.88,3.72,2.88,3.72c-1.49,2.43,1.5,9.89,1.5,9.89H315Z"/></clipPath><clipPath id="clip-path-3"><path class="cls-1" d="M289.44,240.79c-.7-5.21-12.14-8.38-12.14-8.38l-4.85-3.2s-16.6,8.14-23.15,8.57-26.08-8.57-26.08-8.57l-4.34,3.17s-11.44,1.15-14.56,5.42,12,58.32,12,58.32h61a157.55,157.55,0,0,1,7-22c3-7.16-2.55-12.31,1.68-25"/></clipPath><clipPath id="clip-path-4"><path class="cls-1" d="M277.4,289.71s5-6,8.38-6.43,4.7.37,7.08,2.24l1.52,1.18s2.54-2.48,7.62-2.3c6.24.22,12.48,5.78,10.8,11.55H278.52Z"/></clipPath><clipPath id="clip-path-5"><path class="cls-1" d="M69.76,265.11s-6.46,10.46-7.94,11.79v13.31l22.52-12.57,2.4-16.42S73.39,260.9,69.76,265.11Z"/></clipPath><clipPath id="clip-path-6"><path class="cls-1" d="M93.93,223.21c-10.76,5-17.11,24.49-22.16,38.59,0,0-2.35,1.58-2,3.27,0,0,1.9-1.52,7.49-1s11.6,14.71,11.6,14.71l14.92-17"/></clipPath><clipPath id="clip-path-7"><path class="cls-1" d="M92.41,225.71a9.15,9.15,0,0,1,1.52-2.5c4.33-4.33,36.47-10,36.47-10a110.22,110.22,0,0,1,21.74,5c12.52,4.09,21.18,6,23.83,15.39s-2.65,33-2.65,33l-2.41,29.6H87.68s-1.48-28.74-2.5-33.12c-.59-2.55,1-14.13,3.29-24.22"/></clipPath></defs><g id="freepik--background-simple--inject-139"><path class="cls-2" d="M82.09,165.79s-27.88,72,11.3,144.5,119.88,110.8,184.47,143.55S409.52,470.64,441.39,417s-11.84-91.93-11.9-168.42,11.45-96.74-30-161.36-143.06-78.93-219.9-31S82.09,165.79,82.09,165.79Z"/><path class="cls-3" d="M166.84,455.41C50.67,410.56,81.37,347.7,60,264.51S41,149.51,93,91.4s141.8-79.65,205.86-10.92,123.41,62.22,160,113.22,29.79,111.52-36.39,154.18S310.08,510.7,166.84,455.41Z"/><path class="cls-2" d="M166.84,455.41C50.67,410.56,81.37,347.7,60,264.51S41,149.51,93,91.4s141.8-79.65,205.86-10.92,123.41,62.22,160,113.22,29.79,111.52-36.39,154.18S310.08,510.7,166.84,455.41Z"/></g><polyline class="cls-4" points="243.51 372.58 254.61 378.82 265.71 372.58"/><polyline class="cls-4" points="243.51 377.29 254.61 383.53 265.71 377.29"/><polyline class="cls-4" points="243.51 382 254.61 388.24 265.71 382"/><path class="cls-4" d="M375.36,393.89H63.61a1.78,1.78,0,0,1-1.78-1.77V369.21a1.78,1.78,0,0,1,1.77-1.79h9.81"/><line class="cls-4" x1="422.46" y1="393.89" x2="390.26" y2="393.89"/><path class="cls-4" d="M113.33,367.42H445.61a1.78,1.78,0,0,1,1.8,1.76v22.95a1.78,1.78,0,0,1-1.78,1.77H428"/><line class="cls-4" x1="81.29" y1="367.42" x2="101.71" y2="367.42"/><text class="cls-5" transform="translate(183.52 117.77)">Teachers</text><g id="freepik--character-3--inject-139"><path class="cls-6" d="M325.54,296.15H447.42v51.17a4.4,4.4,0,0,1-4.4,4.4H329.94a4.4,4.4,0,0,1-4.4-4.4V296.15Z"/><path class="cls-7" d="M329.94,143.77H443a4.4,4.4,0,0,1,4.4,4.4v148H325.54v-148a4.41,4.41,0,0,1,4.36-4.44Z"/><path class="cls-8" d="M340.94,226.57c.49-4.93,21-11.45,45.54-11.71,22.86-.24,44.83,7.41,47.8,12.45s-6,69-6,69H346.56S339.45,241.57,340.94,226.57Z"/><path class="cls-9" d="M401.17,217a16,16,0,0,1-14.23,8.15c-8.39,0-14.5-7.27-14.5-7.27,2.95-2.65,3.13-7.55,2.69-11.4a34.65,34.65,0,0,0-1.1-5.6h25.08c-1.53,5-1.47,8.62-.88,11.12C399.11,215.67,401.17,217,401.17,217Z"/><path class="cls-10" d="M436.92,262.6s-6.15,26.34-10.63,33.67l-93.17-.12s5-7,8.76-9.45,16.56,1.24,19.08,1.24,46.71-7.08,48.38-7.64,7.06-21.16,7.06-21.16S432.07,259.8,436.92,262.6Z"/><g class="cls-11"><path class="cls-12" d="M436.92,262.6s-2.63,11.28-5.72,21.14c-2.51-1.76-6.51-3.28-12.61-2.58-12.66,1.46-21.17,3.24-21.17,3.24s-12.68,5.67-16.58,11.81l-47.72-.06s5-7,8.76-9.45,16.56,1.24,19.08,1.24,46.71-7.08,48.38-7.64,6.61-19.45,7-21a124.13,124.13,0,0,1,16.31,1.86h0A16.93,16.93,0,0,1,436.92,262.6Z"/></g><path class="cls-4" d="M436.92,262.6s-6.15,26.34-10.63,33.67l-93.17-.12s5-7,8.76-9.45,16.56,1.24,19.08,1.24,46.71-7.08,48.38-7.64,7.06-21.16,7.06-21.16S432.07,259.8,436.92,262.6Z"/><path class="cls-8" d="M421.82,234.64c-3.62,2.8-7.08,14.28-7.08,14.28l-1.24,13.77s17.14,2.24,22.61,10c0,0,.49-2.43,0-3.54a88.22,88.22,0,0,0,6.4-19.86c2.23-11.43-5-22.49-10.45-24.17"/><path class="cls-13" d="M421.82,234.64c-3.62,2.8-7.08,14.28-7.08,14.28l-1.24,13.77"/><path class="cls-14" d="M428.21,259.87c1.9-.16,7.21,1.7,8.15,3.1s1.86,3.25.56,4.42a12.35,12.35,0,0,1,.64,3c0,1.22-1.85,1.77-1.85,1.77a2.67,2.67,0,0,1-1.43,3.45s.54,2.33-1.4,3.26l-1-.74s-6.33.93-9.41,0"/><path class="cls-14" d="M429,268a11.59,11.59,0,0,1,1.18-1.85c.66-1.06-1.5-2-.85-2.8,1.72-2-.11-3-.11-3-.74-1.86-12.76,1.86-13.51-.37-1.08-3.25,5.44-9.43,1.46-12.66-.58-.48-1.27,3.88-6.3,8.23-2.57,2.22-2.65,8.47-7.52,11.26s-14.91,6.34-25.47,7.46c-5.87.62-15.84,3.59-15.84,3.59s-.11-8-2.17-12.54-16.58-7.1-16.58-7.1l-5.37,11s5.9,21.13,8.68,27.1l22.16-.32a128.55,128.55,0,0,0,16.39-7,109.12,109.12,0,0,1,24.23-8.62c3-.56,15.15-1.49,16.83-2.42a2.46,2.46,0,0,0,1.25-3.24l0-.09c-.47-1.25.83-2.36.83-2.36"/><path class="cls-4" d="M436.92,267.39s-1.87-1.81-2.3-2.06-3.79-1.12-3.79-1.12"/><path class="cls-4" d="M435.71,272.21s-.84-1.74-2.12-2.13a31,31,0,0,0-3.32-.68"/><path class="cls-4" d="M434.28,275.64s-1.9-1.18-2.71-1.61a8.7,8.7,0,0,0-2.61-.56"/><path class="cls-8" d="M343.94,223.37s-9,.09-11.44,17.86c-1.38,9.81,3.16,25.9,3.72,29.07a8.1,8.1,0,0,0,3.32,4.94s10.8-6.79,21.42-6.35c0,0,1.87-5.64,0-6.2s1.87-11.4-2.38-19"/><path class="cls-13" d="M361.91,267s1.86-5.63,0-6.19,1.86-11.4-2.38-19"/><path class="cls-8" d="M398.23,212c-18.12,4.75-21.72-5.6-21.72-5.6l-1.38.08a34.65,34.65,0,0,0-1.1-5.6h25.08C397.62,205.89,397.62,209.49,398.23,212Z"/><path class="cls-9" d="M404.62,183.27s2-2.2,3-1.48a4.73,4.73,0,0,1,1.63,4.63c-.55,1.87-2.89,5.11-3.07,7s-1.4,4-2.73,2.79S404.62,183.27,404.62,183.27Z"/><path class="cls-9" d="M368.62,183.27s-2-2.2-3-1.48a4.71,4.71,0,0,0-1.63,4.63c.54,1.87,2.89,5.11,3.07,7s1.4,4,2.73,2.79S368.62,183.27,368.62,183.27Z"/><path class="cls-9" d="M386.14,157.9c25.41,0,19.37,33.83,14.69,44.69-1.64,3.82-10.15,8.82-14.26,8.82-3.83,0-12.58-6-14.13-9.56C367.71,190.93,361.93,157.9,386.14,157.9Z"/><path class="cls-4" d="M390.45,178.79s6.61-2,8.66,2"/><path class="cls-8" d="M395.35,184.35c0,.78-.4,1.41-.89,1.41s-.88-.63-.88-1.41.39-1.42.88-1.42S395.35,183.57,395.35,184.35Z"/><path class="cls-4" d="M382.69,178.79s-6.61-2-8.66,2"/><path class="cls-8" d="M377.79,184.35c0,.78.4,1.41.89,1.41s.88-.63.88-1.41-.39-1.42-.88-1.42S377.79,183.57,377.79,184.35Z"/><path class="cls-8" d="M396.62,166.55a32.24,32.24,0,0,1-19.58,0s-3.43-.2-4.78,1.52,0,7,.36,9.21-3,3.67-2.52,9.14l-1.29,1.89s-3.59-8.8-2.69-16.38,5.69-10.53,5.69-10.53,2.18-6.54,15-6.49c13.78.05,15.17,7.51,15.17,7.51s9.34,6.23,2.43,26.53l-1.5-2.53a11.37,11.37,0,0,0-1.74-7.7c-1.2-1.75.72-7,.27-9.74S396.62,166.55,396.62,166.55Z"/><path class="cls-4" d="M388.08,182.93s.38,7.82,1.5,10-2.79,2.57-4.47,1.27"/><path class="cls-7" d="M381,198.38a5,5,0,0,0,2.36,3c1.74.75,7,.44,8-.19s1.49-2.65,1.49-2.65"/><path class="cls-4" d="M380.45,198.21s5.26,1.49,13.13,0"/><path class="cls-8" d="M392.26,167.62s-2.86.06-3,1.3-.12,3.11-2.79,2.36c0,0-.94,2.28-3.17.65s-2.86.59-2.86.59-1,0-.89-1.24c0,0-2.46-.26-2.46,1.24s-3.86,2.62-3.86,1.12c0,0-.65,3.48-3.12,2.74s-3.66,3.17-3.66,3.17-1.58-2.55-.44-4.66c0,0-2.22-2.24-1.6-4.6a16.65,16.65,0,0,1,1.6-4s-2.24-3.6.94-5.34,2.56-2.67,2.56-3.07,1.36-3.14,3.85-2.27,3.29-2.24,5.31-2.86,5.75-.49,6.43,0a3.48,3.48,0,0,0,3,.5c.94-.37,3.7-1.12,4.18-.12a3.67,3.67,0,0,0,2.52,1.76c.95.22,1.95-1.22,2.94,0S392.26,167.62,392.26,167.62Z"/><path class="cls-8" d="M392.26,167.62c2.69-.56,3.47,1.3,3.72,2.67s2.48,1.64,2.48,1.64,1.25.84,1.25,1.22.62-.25.62-1.74c0,0,.56,2.48.84,3.85a2.68,2.68,0,0,0,3.24,2,2.57,2.57,0,0,0,.6-.23c1.94-.87,1.75,1.87,1.75,1.87a2.81,2.81,0,0,0,.9-3.36s1.74-2.61,1-4.85,1.24-4.35-.62-5.84-1.71-1.24-1.85-2.23.17-2.49-1.17-2.86S402,158.67,402,157.9s-2.11-2.64-5.71-1.28S392.26,167.62,392.26,167.62Z"/><path class="cls-15" d="M382.74,305.52H336.13a1.83,1.83,0,0,0,0,3.66h46.61a1.83,1.83,0,0,0,0-3.66Z"/><path class="cls-15" d="M437.62,320.55H335.33a1,1,0,1,0,0,2.05H437.62a1,1,0,0,0,0-2.05Z"/><path class="cls-15" d="M418.79,325.65H335.33a1,1,0,1,0,0,2.05h83.46a1,1,0,0,0,0-2.05Z"/><path class="cls-15" d="M362.26,312.46H335.33a1,1,0,1,0,0,2.05h26.93a1,1,0,0,0,0-2.05Z"/><rect class="cls-15" x="434.07" y="336.94" width="4.58" height="4.58" rx="1.06"/><rect class="cls-15" x="424.65" y="336.94" width="4.58" height="4.58" rx="1.06"/><rect class="cls-15" x="415.23" y="336.94" width="4.58" height="4.58" rx="1.06"/></g><g id="freepik--character-2--inject-139"><path class="cls-6" d="M193.68,296.15H315.56v51.17a4.4,4.4,0,0,1-4.4,4.4H198.08a4.4,4.4,0,0,1-4.4-4.4V296.15Z"/><path class="cls-15" d="M250.88,305.52H204.27a1.83,1.83,0,0,0,0,3.66h46.61a1.83,1.83,0,0,0,0-3.66Z"/><path class="cls-15" d="M305.77,320.55H203.47a1,1,0,1,0,0,2.05h102.3a1,1,0,0,0,0-2.05Z"/><path class="cls-15" d="M286.93,325.65H203.47a1,1,0,1,0,0,2.05h83.46a1,1,0,0,0,0-2.05Z"/><path class="cls-15" d="M230.4,312.46H203.47a1,1,0,1,0,0,2.05H230.4a1,1,0,0,0,0-2.05Z"/><rect class="cls-15" x="302.21" y="336.94" width="4.58" height="4.58" rx="1.06"/><rect class="cls-15" x="292.79" y="336.94" width="4.58" height="4.58" rx="1.06"/><rect class="cls-15" x="283.37" y="336.94" width="4.58" height="4.58" rx="1.06"/><path class="cls-7" d="M198.08,143.77H311.16a4.4,4.4,0,0,1,4.4,4.4v148H193.68v-148a4.41,4.41,0,0,1,4.36-4.44Z"/><path class="cls-16" d="M272.17,191.1c.85,14.47,1.5,22.63,3,34.67s.75,25.09-17.89,30.3-39.13-8.19-39.88-16.77,6.2-29.06,4.5-45.37,13.17-28.61,25.12-27.86S271.62,181.46,272.17,191.1Z"/><path class="cls-4" d="M261.93,211.91s-1.08,14.88,3.75,24.83"/><path class="cls-4" d="M228.12,205.64s2.87,14.9-3.16,29.87"/><path class="cls-4" d="M235.2,217.81a97.91,97.91,0,0,1-1.41,21.49"/><path class="cls-4" d="M265.68,199.62s.74,10.25,3.25,14.59"/><path class="cls-17" d="M315,288.21a22.88,22.88,0,0,0-3.76-4.94c-3.54-3.17-17.33-41.18-24.69-46.54L280,271.21c1.68,3,6.9,9.88,6.62,11.37s2.88,3.72,2.88,3.72c-1.49,2.43,1.5,9.89,1.5,9.89H315Z"/><g class="cls-18"><path class="cls-12" d="M312.27,296.15H291s-3-7.46-1.5-9.89c0,0-3.15-2.23-2.88-3.72s-5-8.39-6.62-11.33l3.29-17.14,1.91-2s1.76,4.45,1.43,7.16a7.56,7.56,0,0,0,2.2-4s6.47,15.58,4.88,23.79c0,0,10.1-2.07,16.77,3.26,0,0-6.78-1.38-8.26,0C302.18,282.21,312.74,282.41,312.27,296.15Z"/></g><path class="cls-4" d="M315,288.21a22.88,22.88,0,0,0-3.76-4.94c-3.54-3.17-17.33-41.18-24.69-46.54L280,271.21c1.68,3,6.9,9.88,6.62,11.37s2.88,3.72,2.88,3.72c-1.49,2.43,1.5,9.89,1.5,9.89H315Z"/><path class="cls-7" d="M270,230.91s-14.74,8.39-21.43,8.39-25.38-8.57-25.38-8.57c5.9-.56,13.35-3.34,14.74-6.5.73-1.65.25-6.95-.35-11.65-.56-4.33-1.24-8.14-1.24-8.14l22.22,3a89.41,89.41,0,0,0-1.27,10.3,29.31,29.31,0,0,0,.23,6.28C258.62,229.64,270,230.91,270,230.91Z"/><path class="cls-17" d="M289.44,240.79c-.7-5.21-12.14-8.38-12.14-8.38l-4.85-3.2s-16.6,8.14-23.15,8.57-26.08-8.57-26.08-8.57l-4.34,3.17s-11.44,1.15-14.56,5.42,12,58.32,12,58.32h61a157.55,157.55,0,0,1,7-22c3-7.16-2.55-12.31,1.68-25"/><g class="cls-19"><path class="cls-12" d="M284.29,274.15a157.55,157.55,0,0,0-7,22h-61s-3.87-13.86-7.28-28.1l9.67-18.16s5.56,3,5,5.67c0,0,4.72,17.54,11.48,18.74s14.66-4.46,25.54-2.52c10.46,1.87,20,3.2,24.42-3.9A13,13,0,0,1,284.29,274.15Z"/></g><path class="cls-4" d="M289.44,240.79c-.7-5.21-12.14-8.38-12.14-8.38l-4.85-3.2s-16.6,8.14-23.15,8.57-26.08-8.57-26.08-8.57l-4.34,3.17s-11.44,1.15-14.56,5.42,12,58.32,12,58.32h61a157.55,157.55,0,0,1,7-22c3-7.16-2.55-12.31,1.68-25"/><path class="cls-16" d="M268.31,221.87a110.76,110.76,0,0,0,4.8,13.71,37.68,37.68,0,0,1,2.51,22.54s3.23,1,3.41-3.42,1.25-9.58-1.11-16.87c0,0,3.91,5.74,3,15.07a31.86,31.86,0,0,0-1-17.7c-3.31-9.87-3.93-10.06-5.95-19.56"/><path class="cls-15" d="M277.4,289.71s5-6,8.38-6.43,4.7.37,7.08,2.24l1.52,1.18s2.54-2.48,7.62-2.3c6.24.22,12.48,5.78,10.8,11.55H278.52Z"/><g class="cls-20"><path class="cls-12" d="M308.8,296h-12c-.84-2.09-.68-5-1.17-5.62s-1.48-.89-2.27-1.41-.74-2.71-1.74-3.24-2.08-.29-2.47-.49-.23-1.74-1.19-2c1.92.13,3.13.89,4.92,2.3l1.52,1.18a9,9,0,0,1,3.83-1.9C306.8,287.83,308.51,293.21,308.8,296Z"/></g><path class="cls-4" d="M277.4,289.71s5-6,8.38-6.43,4.7.37,7.08,2.24l1.52,1.18s2.54-2.48,7.62-2.3c6.24.22,12.48,5.78,10.8,11.55H278.52Z"/><path class="cls-7" d="M235.2,283.28c12.52.38,22.14,4.66,32.15,5.22s15,.75,18.2,0,12.07,7.65,12.07,7.65h-65L219.75,292l7.08-7.83Z"/><path class="cls-21" d="M211.76,239.3c7.65,4.85,17.74,42.68,19.53,42.31s3.91,1.67,3.91,1.67-2.39,7.69-2.56,12.87H216.79s-8.07.31-10.43-11.53c-4.54-22.78-6.72-44.39-2-46.79"/><path class="cls-4" d="M294.38,286.7s3.82,3.1,4.6,5.81"/><path class="cls-4" d="M282.33,288.92s4.38-2.06,4.94-2.22"/><line class="cls-4" x1="289.13" y1="289.57" x2="290.44" y2="288.92"/><path class="cls-8" d="M258.62,207.46a89.41,89.41,0,0,0-1.27,10.3,10.75,10.75,0,0,1-6.82,1.54A14.74,14.74,0,0,1,239,211.64l-1.36.94c-.56-4.33-1.24-8.14-1.24-8.14Z"/><path class="cls-7" d="M229.74,191.34s-2-2.07-3-1.39a4.28,4.28,0,0,0-1.62,4.35c.54,1.75,2.89,4.81,3.07,6.58s1.39,3.8,2.72,2.62S229.74,191.34,229.74,191.34Z"/><path class="cls-7" d="M265.73,191.34s2-2.07,3-1.39a4.3,4.3,0,0,1,1.62,4.35c-.54,1.75-2.89,4.81-3.07,6.58s-1.39,3.8-2.72,2.62S265.73,191.34,265.73,191.34Z"/><path class="cls-7" d="M248.16,166.07c-25.4,0-18.53,30.71-13.85,41.57,1.64,3.82,9.74,9.16,13.85,9.16,3.83,0,11.48-5,13-8.62C265.92,197.27,272.38,166.07,248.16,166.07Z"/><path class="cls-4" d="M243.86,187s-6.62-2-8.66,2"/><ellipse class="cls-8" cx="239.84" cy="192.52" rx="0.89" ry="1.41"/><path class="cls-4" d="M251.62,187s6.62-2,8.66,2"/><ellipse class="cls-8" cx="255.63" cy="192.52" rx="0.89" ry="1.41"/><path class="cls-7" d="M249.4,191.43c-.87,2,1.86,7.95.87,8.95a4,4,0,0,1-2.53,1"/><path class="cls-7" d="M254.24,203.85s-6.21,2.61-11.8,0"/><path class="cls-3" d="M243.86,170.44s-.8,12.61-4.33,14.22c-.92.42-2-.19-3.8,1.37a12.57,12.57,0,0,0,.81-4.54s-1.34,7.83-10.2,15.35c-2.36,2-4.11,1.71-4.26,0-1-11.71,0-34.1,22.35-35.47a18,18,0,0,1,21.25,8.07,42,42,0,0,1,6.5,22,34.25,34.25,0,0,1-1.25,3.83s.47,5.72-.42,8.59c0,0-4.19-11.69-7.63-14.85-2.3-2.11-2-6.45-3.67-8.63,0,0,.53,2.74-1.24,3.86-1,.6-3.13-.26-4.86-.3a4.88,4.88,0,0,0-2.62.79S250.14,175.9,243.86,170.44Z"/><path class="cls-4" d="M225,198.76a4.71,4.71,0,0,1,1.38-1.92c8.75-7.64,10.2-15.35,10.2-15.35a12.57,12.57,0,0,1-.81,4.54c1.8-1.56,2.88-.95,3.8-1.37,3.53-1.61,4.33-14.22,4.33-14.22,6.28,5.46,6.63,14.28,6.63,14.28a4.88,4.88,0,0,1,2.62-.79c1.73,0,3.91.9,4.86.3,1.77-1.12,1.24-3.86,1.24-3.86,1.68,2.18,1.37,6.52,3.67,8.63,2.12,1.94,4.51,7.11,6.05,10.81"/><path class="cls-4" d="M221.89,205.64a56.21,56.21,0,0,0,.46-6.23c-1.31-10.59-2-36.56,22.08-38a18,18,0,0,1,21.25,8.07,42.29,42.29,0,0,1,6.5,23.46"/><path class="cls-4" d="M258.62,176.07s-1.62-9.32-11.11-12"/><path class="cls-4" d="M264.18,170.44a32.27,32.27,0,0,1,4.13,21"/><path class="cls-4" d="M239,166s-1.91,12.58-10.15,20"/><path class="cls-4" d="M232.3,169.73s-9,8.27-10.47,19.79"/><path class="cls-4" d="M243.86,170.44a30.59,30.59,0,0,0,0-4.49"/><path class="cls-4" d="M222,247s2.84,6.06,1.2,11.27"/><path class="cls-4" d="M289.13,252.9a9.57,9.57,0,0,1-4.33,7.76"/><path class="cls-4" d="M291.62,283.28s6.14-3.31,12.9-1.65"/><path class="cls-4" d="M228.81,282.21s-4.92,3.17-9,2.18"/></g><g id="freepik--character-1--inject-139"><path class="cls-6" d="M61.82,296.15H183.7v51.17a4.4,4.4,0,0,1-4.4,4.4H66.22a4.4,4.4,0,0,1-4.4-4.4Z"/><path class="cls-7" d="M66.22,143.77H179.3a4.4,4.4,0,0,1,4.4,4.4v148H61.82v-148a4.41,4.41,0,0,1,4.36-4.44Z"/><path class="cls-15" d="M69.76,265.11s-6.46,10.46-7.94,11.79v13.31l22.52-12.57,2.4-16.42S73.39,260.9,69.76,265.11Z"/><g class="cls-22"><path class="cls-23" d="M69.76,265.11s-6.46,10.46-7.94,11.79v13.31l22.52-12.57,2.4-16.42S73.39,260.9,69.76,265.11Z"/></g><path class="cls-4" d="M69.76,265.11s-6.46,10.46-7.94,11.79v13.31l22.52-12.57,2.4-16.42S73.39,260.9,69.76,265.11Z"/><path class="cls-3" d="M93.93,223.21c-10.76,5-17.11,24.49-22.16,38.59,0,0-2.35,1.58-2,3.27,0,0,1.9-1.52,7.49-1s11.6,14.71,11.6,14.71l14.92-17"/><g class="cls-24"><path class="cls-12" d="M93.93,223.21c-10.76,5-17.11,24.49-22.16,38.59,0,0-2.35,1.58-2,3.27,0,0,1.9-1.52,7.49-1s11.6,14.71,11.6,14.71l14.92-17"/></g><path class="cls-4" d="M93.93,223.21c-10.76,5-17.11,24.49-22.16,38.59,0,0-2.35,1.58-2,3.27,0,0,1.9-1.52,7.49-1s11.6,14.71,11.6,14.71l14.92-17"/><path class="cls-3" d="M92.41,225.71a9.15,9.15,0,0,1,1.52-2.5c4.33-4.33,36.47-10,36.47-10a110.22,110.22,0,0,1,21.74,5c12.52,4.09,21.18,6,23.83,15.39s-2.65,33-2.65,33l-2.41,29.6H87.68s-1.48-28.74-2.5-33.12c-.59-2.55,1-14.13,3.29-24.22"/><g class="cls-25"><path class="cls-12" d="M175.46,254.83c-1,6.5-2.14,11.72-2.14,11.72l-1,12.83c-3.69,4.7-10.78,12.79-18.86,16.77H109.35L93.62,280l-6.54,6.07c-.53-8.74-1.32-20.4-1.94-23.06-.47-2,.44-9.79,2-17.95l39.05,46.24,28.3-18.3,15.83-23.13Z"/></g><path class="cls-4" d="M92.41,225.71a9.15,9.15,0,0,1,1.52-2.5c4.33-4.33,36.47-10,36.47-10a110.22,110.22,0,0,1,21.74,5c12.52,4.09,21.18,6,23.83,15.39s-2.65,33-2.65,33l-2.41,29.6H87.68s-1.48-28.74-2.5-33.12c-.59-2.55,1-14.13,3.29-24.22"/><path class="cls-7" d="M116.83,200.88s5.34,11.54,0,16.36c0,0,2,8.17,5.53,10.1S144,217,144,217s-4.12-12.26-2.06-16.11Z"/><path class="cls-7" d="M147.37,183.27s2-2.2,3-1.48a4.71,4.71,0,0,1,1.63,4.63c-.54,1.87-2.89,5.11-3.07,7s-1.4,4-2.73,2.79S147.37,183.27,147.37,183.27Z"/><path class="cls-7" d="M111.37,183.27s-2-2.2-3-1.48a4.71,4.71,0,0,0-1.63,4.63c.55,1.87,2.89,5.11,3.07,7s1.4,4,2.73,2.79S111.37,183.27,111.37,183.27Z"/><path class="cls-7" d="M128.94,157.9c25.41,0,18.53,30.71,13.86,41.57-1.64,3.82-9.74,9.16-13.86,9.16-3.82,0-11.47-5-13-8.61C111.19,189.1,104.73,157.9,128.94,157.9Z"/><path class="cls-4" d="M133.25,178.79s6.62-2,8.66,2"/><path class="cls-8" d="M138.15,184.35c0,.78-.4,1.41-.89,1.41s-.88-.63-.88-1.41.39-1.42.88-1.42S138.15,183.57,138.15,184.35Z"/><path class="cls-4" d="M125.49,178.79s-6.61-2-8.66,2"/><path class="cls-8" d="M120.62,184.35c0,.78.4,1.41.89,1.41s.88-.63.88-1.41-.39-1.42-.88-1.42S120.62,183.57,120.62,184.35Z"/><path class="cls-7" d="M126.39,190.15c-1,1,2.36,2.71,3,2.71s3.16-1.33,3.16-2.11"/><path class="cls-8" d="M112.94,186.42s1.5,6.8,2.16,7.4,3.07,2.47,3.07,2.47,4.45-2.23,5.35-2.29,3.79.54,6.14.54,4-1,5.35-.3,4.87,2.71,4.87,2.71,3.49-3,3.67-3.13,2.16-7.4,2.16-7.4l.73.62s-.79,16.94-2.11,18.75-10,7-15,7-15-5.24-15.53-6.86S112.28,187.69,112.94,186.42Z"/><path class="cls-26" d="M122,197.76s1.35,1.17,2.07,1a32.19,32.19,0,0,1,5-.48c1.7,0,3.48.44,4.84.51a5.34,5.34,0,0,0,2.48-.51"/><path class="cls-8" d="M139.46,166.55a32.24,32.24,0,0,1-19.58,0s-3.42-.2-4.78,1.52,0,7,.36,9.21-3,3.67-2.52,9.14l-.45,2.07s-3.7-9.4-2.8-17,5-10.11,5-10.11,2.18-6.54,15-6.49c13.78.05,15.17,7.51,15.17,7.51s8.57,6.47,1.66,26.77l-.73-2.77a11.37,11.37,0,0,0-1.74-7.7c-1.2-1.75.72-7,.27-9.74S139.46,166.55,139.46,166.55Z"/><path class="cls-7" d="M73.33,273.21s1.74-10.41,3.27-11.75c4-3.47,3.85-4.91,6.36-6.24a6.81,6.81,0,0,0,3.36-5.35s4.31,1.1-.73,7.46a17.69,17.69,0,0,0-2.51,4.49c-.47,1.25,2.94,2.27,7.57,1.1,5.82-1.46,10,6.67,3,11a54.43,54.43,0,0,0-10.73,9l-8.3,13.23H61.82V282.07S70.45,277.56,73.33,273.21Z"/><path class="cls-7" d="M89.27,275.57s3.44-2.4,5.66-2.55"/><path class="cls-7" d="M89.27,270.21a14.26,14.26,0,0,0,3.13-1.89c.78-.82,3.44-3.82,3.44-3.82"/><path class="cls-7" d="M87.62,227.53c-1.67-.53-6.55,0-7.81-.47s-2.84.73-1.87,3,7.83,2.35,7.83,2.35Z"/><path class="cls-7" d="M81.3,229.43s-5.28-.68-6.68-.22c-.48.14-1.66,3.5-1.12,6.76s6.16,3.56,6.16,3.56Z"/><path class="cls-4" d="M74.81,232.43a2.48,2.48,0,0,0,2.66,1.32"/><path class="cls-7" d="M76,234.4s-4.34,2.19-4.7,4,.91,4.77.91,4.77l5.24-.31Z"/><path class="cls-7" d="M73.94,241.49a41.12,41.12,0,0,0-2.86,3c-.61.85,2.22,5.79,2.86,6.51s6.25,1.08,6.25,1.08S76.8,243,73.94,241.49Z"/><path class="cls-4" d="M74.81,249.67s2.81-.46,2.37-2.86"/><path class="cls-7" d="M75.62,248.21c3,2.64,7.91,6.81,10.54,8,3.44,1.63,16.32,28,29.33,39.87h36.68s8.29-11.17,11.33-17.7,8.12-24.55,8.12-24.55l-14-4.14-13.76,15.87-9.47,15.17S100.68,253.7,96.71,245.3s-7.09-17.77-9.09-17.77c-2.33,0-1.73,1.82-6.33,1.9-2.15,0-2.33,2.57-4.2,4.2s-3.28.84-3,6.09c.18,3.49-2.87,3.23-1,6.06"/><path class="cls-16" d="M155.52,227.54c-3.85,2.2-8.72,20.73-8.21,24.82s-5.26,12.27-4.3,14.43c0,0,7.94-.72,12.51,1.45s8.42,8.42,7.7,11.78c0,0,2.4,0,2.4-1.2s8.9-13,12.51-21.41,4.39-26.23-7.44-31.64"/><path class="cls-27" d="M85.62,258.43s1.51-4.57,7.46-9.14c3.84-2.95,5.53-2.17,5.53-2.17l3.13,4.45-.38.67a14,14,0,0,0-4.91,3,22.23,22.23,0,0,0-5.9,7.14H89.27Z"/><path class="cls-7" d="M99.32,252.21a4.4,4.4,0,1,1-4.41-4.39h0A4.41,4.41,0,0,1,99.32,252.21Z"/><path class="cls-4" d="M144,239.48s-.78,10.6,1.85,14.94"/><path class="cls-4" d="M115.49,229.7s4.94,3.56,15.39-2.16"/><path class="cls-4" d="M92.55,283.28s9.64,10.71,14,12.87"/><path class="cls-15" d="M119,305.52H72.41a1.83,1.83,0,0,0,0,3.66H119a1.83,1.83,0,0,0,0-3.66Z"/><path class="cls-15" d="M173.91,320.55H71.62a1,1,0,1,0,0,2.05h102.3a1,1,0,0,0,0-2.05Z"/><path class="cls-15" d="M155.07,325.65H71.62a1,1,0,1,0,0,2.05h83.46a1,1,0,0,0,0-2.05Z"/><path class="cls-15" d="M98.54,312.46H71.62a1,1,0,1,0,0,2.05H98.54a1,1,0,0,0,0-2.05Z"/><rect class="cls-15" x="170.35" y="336.94" width="4.58" height="4.58" rx="1.06"/><rect class="cls-15" x="160.93" y="336.94" width="4.58" height="4.58" rx="1.06"/><rect class="cls-15" x="151.51" y="336.94" width="4.58" height="4.58" rx="1.06"/></g></svg>