<svg id="レイヤー_1" data-name="レイヤー 1" xmlns="http://www.w3.org/2000/svg" viewBox="0 0 665.34 216.19"><defs><style>.cls-1,.cls-10,.cls-11,.cls-12,.cls-13,.cls-2,.cls-3,.cls-4,.cls-5,.cls-6,.cls-8,.cls-9{fill:none;stroke:#0090c6;}.cls-1,.cls-10,.cls-11,.cls-12,.cls-13,.cls-2,.cls-3,.cls-4,.cls-5,.cls-6,.cls-9{stroke-miterlimit:10;}.cls-1,.cls-9{stroke-width:2px;}.cls-10,.cls-3,.cls-4,.cls-8,.cls-9{stroke-linecap:round;}.cls-3,.cls-5,.cls-8{stroke-width:3px;}.cls-11,.cls-6{stroke-width:5px;}.cls-7{fill:#0090c6;}.cls-8{stroke-linejoin:round;}.cls-10{stroke-width:6px;}.cls-11,.cls-12,.cls-13{stroke-linecap:square;}.cls-13{stroke-width:0.75px;}</style></defs><line class="cls-1" x1="712.34" y1="211.62" x2="-40.63" y2="211.62"/><rect class="cls-2" x="467.5" y="141.58" width="107.59" height="67.26" rx="5.09"/><rect class="cls-2" x="471.44" y="144.84" width="99.7" height="60.74" rx="5.09"/><line class="cls-3" x1="491.47" y1="139.28" x2="551.12" y2="139.28"/><line class="cls-4" x1="493.77" y1="139.28" x2="553.43" y2="139.28"/><line class="cls-3" x1="92.22" y1="210.48" x2="84.46" y2="210.48"/><line class="cls-3" x1="182.02" y1="210.48" x2="174.26" y2="210.48"/><rect class="cls-5" x="39.38" y="57.02" width="186.98" height="106.69" rx="5.09" transform="translate(22.5 243.23) rotate(-90)"/><line class="cls-6" x1="88.34" y1="203.86" x2="88.34" y2="211.62"/><line class="cls-6" x1="178.14" y1="205.1" x2="178.14" y2="211.62"/><circle class="cls-7" cx="95.98" cy="36.68" r="7.65"/><circle class="cls-7" cx="114.27" cy="36.68" r="7.65"/><circle class="cls-7" cx="132.56" cy="36.68" r="7.65"/><circle class="cls-7" cx="150.85" cy="36.68" r="7.65"/><circle class="cls-7" cx="169.14" cy="36.68" r="7.65"/><circle class="cls-7" cx="96.29" cy="66.18" r="7.65"/><circle class="cls-7" cx="114.58" cy="66.18" r="7.65"/><circle class="cls-7" cx="132.87" cy="66.18" r="7.65"/><circle class="cls-7" cx="151.16" cy="66.18" r="7.65"/><circle class="cls-7" cx="169.45" cy="66.18" r="7.65"/><circle class="cls-7" cx="104.83" cy="51.43" r="5.86"/><circle class="cls-7" cx="118.85" cy="51.43" r="5.86"/><circle class="cls-7" cx="132.87" cy="51.43" r="5.86"/><circle class="cls-7" cx="146.89" cy="51.43" r="5.86"/><circle class="cls-7" cx="160.91" cy="51.43" r="5.86"/><circle class="cls-7" cx="104.83" cy="80.93" r="5.86"/><circle class="cls-7" cx="118.85" cy="80.93" r="5.86"/><circle class="cls-7" cx="132.87" cy="80.93" r="5.86"/><circle class="cls-7" cx="146.89" cy="80.93" r="5.86"/><circle class="cls-7" cx="160.91" cy="80.93" r="5.86"/><circle class="cls-7" cx="95.98" cy="95.68" r="7.65"/><circle class="cls-7" cx="114.27" cy="95.68" r="7.65"/><circle class="cls-7" cx="132.56" cy="95.68" r="7.65"/><circle class="cls-7" cx="150.85" cy="95.68" r="7.65"/><circle class="cls-7" cx="169.14" cy="95.68" r="7.65"/><circle class="cls-7" cx="96.29" cy="125.19" r="7.65"/><circle class="cls-7" cx="114.58" cy="125.19" r="7.65"/><circle class="cls-7" cx="132.87" cy="125.19" r="7.65"/><circle class="cls-7" cx="151.16" cy="125.19" r="7.65"/><circle class="cls-7" cx="169.45" cy="125.19" r="7.65"/><circle class="cls-7" cx="104.83" cy="110.43" r="5.86"/><circle class="cls-7" cx="118.85" cy="110.43" r="5.86"/><circle class="cls-7" cx="132.87" cy="110.43" r="5.86"/><circle class="cls-7" cx="146.89" cy="110.43" r="5.86"/><circle class="cls-7" cx="160.91" cy="110.43" r="5.86"/><circle class="cls-7" cx="104.83" cy="139.94" r="5.86"/><circle class="cls-7" cx="118.85" cy="139.94" r="5.86"/><circle class="cls-7" cx="132.87" cy="139.94" r="5.86"/><circle class="cls-7" cx="146.89" cy="139.94" r="5.86"/><circle class="cls-7" cx="160.91" cy="139.94" r="5.86"/><circle class="cls-7" cx="95.98" cy="153.45" r="7.65"/><circle class="cls-7" cx="114.27" cy="153.45" r="7.65"/><circle class="cls-7" cx="132.56" cy="153.45" r="7.65"/><circle class="cls-7" cx="150.85" cy="153.45" r="7.65"/><circle class="cls-7" cx="169.14" cy="153.45" r="7.65"/><circle class="cls-7" cx="96.29" cy="182.95" r="7.65"/><circle class="cls-7" cx="114.58" cy="182.95" r="7.65"/><circle class="cls-7" cx="132.87" cy="182.95" r="7.65"/><circle class="cls-7" cx="151.16" cy="182.95" r="7.65"/><circle class="cls-7" cx="169.45" cy="182.95" r="7.65"/><circle class="cls-7" cx="104.83" cy="168.2" r="5.86"/><circle class="cls-7" cx="118.85" cy="168.2" r="5.86"/><circle class="cls-7" cx="132.87" cy="168.2" r="5.86"/><circle class="cls-7" cx="146.89" cy="168.2" r="5.86"/><circle class="cls-7" cx="160.91" cy="168.2" r="5.86"/><polyline class="cls-8" points="112.74 15.93 112.74 3.52 153 3.52 153 15.93"/><rect class="cls-5" x="221.05" y="15.63" width="230.11" height="143.86" rx="5.09"/><rect class="cls-5" x="313.74" y="159.49" width="44.73" height="37.31" rx="2.73"/><rect class="cls-5" x="300.73" y="196.8" width="70.76" height="13.58" rx="1.8"/><rect class="cls-1" x="229.49" y="22.6" width="213.24" height="129.91" rx="5.09"/><path class="cls-7" d="M349,57.61c-1.57-1.32-7,1.69-9.89,5.89-1.64,2.39-3.33,6.4-2.06,7.58,1.42,1.32,6.35-1,9.23-4.45C348.82,63.58,350.42,58.8,349,57.61Z"/><path class="cls-7" d="M348.92,89.19a13.24,13.24,0,0,1,8.66-12.41,13.06,13.06,0,0,0-1-1,17,17,0,0,0-9.89-3.62c-.77,0-5.73-.18-9.33,2.3l-.14.11-.13-.11c-3.6-2.48-8.56-2.33-9.34-2.3a17,17,0,0,0-9.88,3.62c-8,6.84-4.36,20.92-3.52,24.17.31,1.18,2.69,9.91,9.23,14.39,3.14,2.15,5.25,2,5.93,1.86a6.1,6.1,0,0,0,1.89-.63v0a10.75,10.75,0,0,1,11.68,0h0a6.16,6.16,0,0,0,1.86.61c.68.1,2.79.29,5.93-1.86,4.89-3.35,7.45-9.07,8.56-12.24A13.24,13.24,0,0,1,348.92,89.19Z"/><rect class="cls-9" x="591.84" y="149.92" width="36.05" height="61.06"/><line class="cls-10" x1="595.59" y1="124.56" x2="598.43" y2="147.61"/><line class="cls-3" x1="594.67" y1="119.37" x2="597.51" y2="142.43"/><line class="cls-4" x1="599.4" y1="123.26" x2="602.24" y2="146.32"/><line class="cls-4" x1="185.56" y1="110.37" x2="220.16" y2="110.37"/><polyline class="cls-4" points="396.8 160.73 396.8 179.38 467.5 179.38"/><line class="cls-11" x1="631.04" y1="120.52" x2="623.65" y2="147.52"/><polyline class="cls-12" points="79.52 177.66 22.1 177.66 22.1 210.48"/><rect class="cls-12" x="503.71" y="165.61" width="39.79" height="19.21"/><rect class="cls-13" x="543.96" y="171.98" width="3.89" height="6.46"/><path class="cls-7" d="M528.85,159.39c-.51,1.64-1.12,3.21-1.77,4.75s-1.36,3-2.1,4.53c-1.48,3-3.11,5.82-4.84,8.61l-2.38-4.51c3.89-.16,7.79-.16,11.69,0l.28,0a2.77,2.77,0,0,1,2.62,2.89,2.72,2.72,0,0,1-.56,1.53c-1.87,2.48-3.85,4.88-6,7.2-1.05,1.16-2.15,2.29-3.28,3.39S520.23,190,519,191c.48-1.55,1-3,1.65-4.5s1.27-2.89,2-4.29c1.38-2.82,2.9-5.54,4.52-8.19l2.35,4.44c-3.9.2-7.8.2-11.69,0h-.25a2.81,2.81,0,0,1-2.69-2.93,2.77,2.77,0,0,1,.56-1.57c2-2.63,4-5.19,6.24-7.65,1.12-1.23,2.26-2.43,3.45-3.61S527.51,160.47,528.85,159.39Z"/></svg>