<?xml version="1.0" encoding="utf-8"?>
<!-- Generator: Adobe Illustrator 24.3.0, SVG Export Plug-In . SVG Version: 6.00 Build 0)  -->
<svg version="1.1" id="Capa_1" xmlns="http://www.w3.org/2000/svg" xmlns:xlink="http://www.w3.org/1999/xlink" x="0px" y="0px"
	 viewBox="0 0 4569.9 225.7" style="enable-background:new 0 0 4569.9 225.7;" xml:space="preserve">
<style type="text/css">
	.st0{fill:#FFFFFF;}
</style>
<path class="st0" d="M3968.6,0h-674.2c-51,0-52.4,1.9-65.2,10.6c-24.8,16.9-65.9,47.4-83.9,59.1c-27.6,17.9-26.8,15.4-63.4,16
	c-88.1,1.6-1557.4-3.2-1557.4-3.2h-39.7c-7,0.1-14.1,1-20.9,2.6c-10,2.6-19.2,6.3-37.6,13.2c-15.4,5.8-237.9,75.3-311.3,98.2
	c-14.7,4.6-30.7,7.3-77.6,7.3H625.6h-79.6h-547v21.9h4570.4V0h-547H3968.6z"/>
</svg>
