<?xml version="1.0" encoding="utf-8"?>
<!-- Generator: Adobe Illustrator 24.3.0, SVG Export Plug-In . SVG Version: 6.00 Build 0)  -->
<svg version="1.1" id="Capa_1" xmlns="http://www.w3.org/2000/svg" xmlns:xlink="http://www.w3.org/1999/xlink" x="0px" y="0px"
	 viewBox="0 0 4569.9 181.3" style="enable-background:new 0 0 4569.9 181.3;" xml:space="preserve">
<style type="text/css">
	.st0{fill:#FFFFFF;}
</style>
<path class="st0" d="M4025.9,0h-28.4H694.8H543H-0.5v37.5H543v0l1154.5,0c22.2,0,21.6-0.8,29.7,7.4c11.4,11.4,31.1,34.3,41.2,44.5
	c17.2,17.2,12.5,17,48.6,17c36.2,0.1,184.1-0.2,221.6-0.1c37.5,0.1,37.4,0.1,47.2,12.8s26.5,34.3,38.8,49.1
	c12.3,14.8,13.6,13.8,30.2,13.8c15.4-0.1,1610.1-1.7,1842.6-2l0,0h572.3V0H4025.9z"/>
</svg>
