<svg xmlns="http://www.w3.org/2000/svg" width="2265.278" height="1116" viewBox="0 0 2265.278 1116">
  <g id="Grupo_529" data-name="Grupo 529" transform="translate(-96.5 32.5)">
    <g id="Grupo_511" data-name="Grupo 511" transform="translate(-715 -4270)" opacity="0.4" style="isolation: isolate">
      <g id="Grupo_495" data-name="Grupo 495" transform="translate(1212.168 4657.879)" opacity="0.4" style="isolation: isolate">
        <path id="Trazado_154" data-name="Trazado 154" d="M-4616.867,9458.985l-49,27.321c-7.353,4.1-18.891,2.773-28.15-2.572s-150.735-88.286-159.185-93.229c-10.418-6.1-18.176-9.3-5.847-16.876l30.319-18.632c4.569-2.808,5.1-6.1-.618-9.748s-198.9-117.307-198.9-117.307" transform="translate(5349.348 -9213.525)" fill="none" stroke="#fff" stroke-linecap="round" stroke-linejoin="round" stroke-width="2"/>
        <path id="Trazado_159" data-name="Trazado 159" d="M-4912.2,9254.437l13.236-8.079c5.853-3.574,11.543-5.146,19.44-.662,5.56,3.156,34.582,20.807,51.431,31.072,6.865,4.184,11.705,7.139,1.884,13.26l-48.783,29.939c-10.526,6.459-6.03,13.241.155,17.046l167.438,102.967" transform="translate(5239.909 -9003.388)" fill="none" stroke="#fff" stroke-linecap="round" stroke-linejoin="round" stroke-width="2"/>
        <path id="Trazado_246" data-name="Trazado 246" d="M-4831.994,9177.613s264.763,164.533,269.28,167.3" transform="translate(5196.573 -9023.256)" fill="none" stroke="#fff" stroke-linecap="round" stroke-linejoin="round" stroke-width="2"/>
        <path id="Trazado_161" data-name="Trazado 161" d="M-4776.651,9062.656s32.349,21.448,39.119,25.357,4.457,12.944-2.825,17.4-40.909,25.73-46.974,29.441c-8.906,5.451-9.046,13.1,1.171,19.2l150.431,89.817" transform="translate(5033.769 -8653.41)" fill="none" stroke="#fff" stroke-linecap="round" stroke-linejoin="round" stroke-width="2"/>
        <g id="Grupo_492" data-name="Grupo 492" transform="translate(-7.776 374.944)">
          <path id="Trazado_162" data-name="Trazado 162" d="M-4582.053,9001.423s-91.209,54.163-100.533,59.7-20.425,3.4-31.243-2.842-44.5-26.655-44.5-26.655" transform="translate(5353.644 -9023.135)" fill="none" stroke="#fff" stroke-linecap="round" stroke-linejoin="round" stroke-width="2"/>
          <circle id="Elipse_1009" data-name="Elipse 1009" cx="9" cy="9" r="9" transform="translate(578.607 -6)" fill="none" stroke="#fff" stroke-linecap="round" stroke-linejoin="round" stroke-width="2"/>
          <circle id="Elipse_1010" data-name="Elipse 1010" cx="8.5" cy="8.5" r="8.5" transform="translate(769.607 -37)" fill="none" stroke="#fff" stroke-linecap="round" stroke-linejoin="round" stroke-width="2"/>
        </g>
        <circle id="Elipse_1011" data-name="Elipse 1011" cx="9" cy="9" r="9" transform="translate(395.832 588.121)" fill="none" stroke="#fff" stroke-linecap="round" stroke-linejoin="round" stroke-width="2"/>
        <ellipse id="Elipse_1012" data-name="Elipse 1012" cx="8.5" cy="9" rx="8.5" ry="9" transform="translate(242.832 393.121)" fill="none" stroke="#fff" stroke-linecap="round" stroke-linejoin="round" stroke-width="2"/>
        <ellipse id="Elipse_1015" data-name="Elipse 1015" cx="9" cy="8.5" rx="9" ry="8.5" transform="translate(311.832 248.121)" fill="none" stroke="#fff" stroke-linecap="round" stroke-linejoin="round" stroke-width="2"/>
        <circle id="Elipse_1017" data-name="Elipse 1017" cx="9" cy="9" r="9" transform="translate(348.832 139.121)" fill="none" stroke="#fff" stroke-linecap="round" stroke-linejoin="round" stroke-width="2"/>
        <circle id="Elipse_1016" data-name="Elipse 1016" cx="8.5" cy="8.5" r="8.5" transform="translate(530.832 435.121)" fill="none" stroke="#fff" stroke-linecap="round" stroke-linejoin="round" stroke-width="2"/>
        <circle id="Elipse_1018" data-name="Elipse 1018" cx="8.5" cy="8.5" r="8.5" transform="translate(632.832 319.121)" fill="none" stroke="#fff" stroke-linecap="round" stroke-linejoin="round" stroke-width="2"/>
        <circle id="Elipse_1019" data-name="Elipse 1019" cx="9" cy="9" r="9" transform="translate(729.832 230.121)" fill="none" stroke="#fff" stroke-linecap="round" stroke-linejoin="round" stroke-width="2"/>
        <circle id="Elipse_1020" data-name="Elipse 1020" cx="8.5" cy="8.5" r="8.5" transform="translate(305.832 0.121)" fill="none" stroke="#fff" stroke-linecap="round" stroke-linejoin="round" stroke-width="2"/>
      </g>
      <g id="Grupo_496" data-name="Grupo 496" transform="translate(1274.801 4656)" style="isolation: isolate">
        <path id="Trazado_155" data-name="Trazado 155" d="M-4712.4,9603.289s100.755-56.149,115.074-64.633,14.825-21.211,0-30.931-60.166-40.11-60.166-40.11" transform="translate(4964.618 -9676.802)" fill="none" stroke="#fff" stroke-linecap="round" stroke-linejoin="round" stroke-width="3"/>
        <path id="Trazado_244" data-name="Trazado 244" d="M-4655.792,9514.066s-80.223,46.938-94.541,55.421-14.825,21.212,0,30.931,117.708,75.62,117.708,75.62" transform="translate(5049.023 -9157.908)" fill="none" stroke="#fff" stroke-linecap="round" stroke-linejoin="round" stroke-width="3"/>
        <g id="Grupo_491" data-name="Grupo 491" transform="translate(17.702 249.162)">
          <path id="Trazado_152" data-name="Trazado 152" d="M-5252.322,9620.912l308.081-171.106s19.2-12.6,34.331-3.655,30.252,18.967,39.874,25.272,25.874-1.407,25.874-1.407l60.318-38.551" transform="translate(5252.322 -9431.465)" fill="none" stroke="#fff" stroke-linecap="round" stroke-linejoin="round" stroke-width="3"/>
        </g>
        <path id="Trazado_245" data-name="Trazado 245" d="M-5069.283,9624.758l-73.745,50.041s-19.2,12.6-34.331,3.655-30.252-18.968-39.874-25.272-25.874,1.407-25.874,1.407l-145.972,95.067" transform="translate(5644.937 -9067.888)" fill="none" stroke="#fff" stroke-linecap="round" stroke-linejoin="round" stroke-width="3"/>
        <circle id="Elipse_997" data-name="Elipse 997" cx="8.5" cy="8.5" r="8.5" transform="translate(0.199 435)" fill="none" stroke="#fff" stroke-linecap="round" stroke-linejoin="round" stroke-width="3"/>
        <ellipse id="Elipse_1000" data-name="Elipse 1000" cx="8.5" cy="9" rx="8.5" ry="9" transform="translate(235.199 -78)" fill="none" stroke="#fff" stroke-linecap="round" stroke-linejoin="round" stroke-width="3"/>
        <ellipse id="Elipse_1001" data-name="Elipse 1001" cx="8.5" cy="9" rx="8.5" ry="9" transform="translate(289.199 -224)" fill="none" stroke="#fff" stroke-linecap="round" stroke-linejoin="round" stroke-width="3"/>
        <circle id="Elipse_1004" data-name="Elipse 1004" cx="9" cy="9" r="9" transform="translate(393.199 344)" fill="none" stroke="#fff" stroke-linecap="round" stroke-linejoin="round" stroke-width="3"/>
        <ellipse id="Elipse_1006" data-name="Elipse 1006" cx="9" cy="8.5" rx="9" ry="8.5" transform="translate(414.199 517)" fill="none" stroke="#fff" stroke-linecap="round" stroke-linejoin="round" stroke-width="3"/>
        <circle id="Elipse_1005" data-name="Elipse 1005" cx="8.5" cy="8.5" r="8.5" transform="translate(486.199 235)" fill="none" stroke="#fff" stroke-linecap="round" stroke-linejoin="round" stroke-width="3"/>
        <circle id="Elipse_1007" data-name="Elipse 1007" cx="8.5" cy="8.5" r="8.5" transform="translate(575.199 541)" fill="none" stroke="#fff" stroke-linecap="round" stroke-linejoin="round" stroke-width="3"/>
        <ellipse id="Elipse_1008" data-name="Elipse 1008" cx="9" cy="8.5" rx="9" ry="8.5" transform="translate(238.199 679)" fill="none" stroke="#fff" stroke-linecap="round" stroke-linejoin="round" stroke-width="3"/>
      </g>
    </g>
    <g id="Grupo_528" data-name="Grupo 528" transform="translate(-1177 -4829)" opacity="0.4" style="isolation: isolate">
      <g id="Grupo_495-2" data-name="Grupo 495" transform="translate(1212.168 4657.879)" opacity="0.4" style="isolation: isolate">
        <path id="Trazado_154-2" data-name="Trazado 154" d="M-5028.249,9458.985l49,27.321c7.353,4.1,18.891,2.773,28.15-2.572s150.735-88.286,159.185-93.229c10.418-6.1,18.176-9.3,5.847-16.876L-4816.381,9355c-4.569-2.808-5.1-6.1.618-9.748s198.9-117.307,198.9-117.307" transform="translate(5321.432 -8639.525)" fill="none" stroke="#fff" stroke-linecap="round" stroke-linejoin="round" stroke-width="2"/>
        <path id="Trazado_159-2" data-name="Trazado 159" d="M-4707.4,9428.489l-13.236,8.079c-5.853,3.574-11.543,5.146-19.44.662-5.56-3.156-34.582-20.807-51.431-31.072-6.865-4.184-11.705-7.139-1.884-13.26l48.783-29.939c10.526-6.459,6.03-13.241-.155-17.046s-138.761-83.929-138.761-83.929" transform="translate(5285.349 -8922.857)" fill="none" stroke="#fff" stroke-linecap="round" stroke-linejoin="round" stroke-width="2"/>
        <path id="Trazado_246-2" data-name="Trazado 246" d="M-4831.994,9177.613s264.763,164.533,269.28,167.3" transform="translate(5277.573 -8610.256)" fill="none" stroke="#fff" stroke-linecap="round" stroke-linejoin="round" stroke-width="2"/>
        <path id="Trazado_161-2" data-name="Trazado 161" d="M-4776.651,9062.656s32.349,21.448,39.119,25.357,4.457,12.944-2.825,17.4-40.909,25.73-46.974,29.441c-8.906,5.451-9.046,13.1,1.171,19.2l150.431,89.817" transform="translate(5033.769 -8653.41)" fill="none" stroke="#fff" stroke-linecap="round" stroke-linejoin="round" stroke-width="2"/>
        <g id="Grupo_492-2" data-name="Grupo 492" transform="translate(-7.776 374.944)">
          <path id="Trazado_162-2" data-name="Trazado 162" d="M-4758.33,9064.312s91.209-54.163,100.533-59.7,20.425-3.4,31.243,2.842,44.5,26.655,44.5,26.655" transform="translate(5365.954 -9033.423)" fill="none" stroke="#fff" stroke-linecap="round" stroke-linejoin="round" stroke-width="2"/>
          <circle id="Elipse_1009-2" data-name="Elipse 1009" cx="9" cy="9" r="9" transform="translate(782.607 -2.823)" fill="none" stroke="#fff" stroke-linecap="round" stroke-linejoin="round" stroke-width="2"/>
          <circle id="Elipse_1010-2" data-name="Elipse 1010" cx="8.5" cy="8.5" r="8.5" transform="translate(592.607 29.177)" fill="none" stroke="#fff" stroke-linecap="round" stroke-linejoin="round" stroke-width="2"/>
        </g>
        <circle id="Elipse_1011-2" data-name="Elipse 1011" cx="9" cy="9" r="9" transform="translate(395.832 588.121)" fill="none" stroke="#fff" stroke-linecap="round" stroke-linejoin="round" stroke-width="2"/>
        <ellipse id="Elipse_1012-2" data-name="Elipse 1012" cx="8.5" cy="9" rx="8.5" ry="9" transform="translate(242.832 393.121)" fill="none" stroke="#fff" stroke-linecap="round" stroke-linejoin="round" stroke-width="2"/>
        <circle id="Elipse_1015-2" data-name="Elipse 1015" cx="8.5" cy="8.5" r="8.5" transform="translate(576.832 491.56)" fill="none" stroke="#fff" stroke-linecap="round" stroke-linejoin="round" stroke-width="2"/>
        <circle id="Elipse_1017-2" data-name="Elipse 1017" cx="9" cy="9" r="9" transform="translate(429.832 552.121)" fill="none" stroke="#fff" stroke-linecap="round" stroke-linejoin="round" stroke-width="2"/>
        <circle id="Elipse_1016-2" data-name="Elipse 1016" cx="8.5" cy="8.5" r="8.5" transform="translate(386.832 324.56)" fill="none" stroke="#fff" stroke-linecap="round" stroke-linejoin="round" stroke-width="2"/>
        <circle id="Elipse_1018-2" data-name="Elipse 1018" cx="8.5" cy="8.5" r="8.5" transform="translate(713.832 732.121)" fill="none" stroke="#fff" stroke-linecap="round" stroke-linejoin="round" stroke-width="2"/>
        <circle id="Elipse_1019-2" data-name="Elipse 1019" cx="9" cy="9" r="9" transform="translate(277.832 804.121)" fill="none" stroke="#fff" stroke-linecap="round" stroke-linejoin="round" stroke-width="2"/>
        <circle id="Elipse_1020-2" data-name="Elipse 1020" cx="8.5" cy="8.5" r="8.5" transform="translate(702.832 574.121)" fill="none" stroke="#fff" stroke-linecap="round" stroke-linejoin="round" stroke-width="2"/>
      </g>
      <g id="Grupo_496-2" data-name="Grupo 496" transform="translate(1274.801 4656)" style="isolation: isolate">
        <path id="Trazado_155-2" data-name="Trazado 155" d="M-4712.4,9603.289s100.755-56.149,115.074-64.633,14.825-21.211,0-30.931-60.166-40.11-60.166-40.11" transform="translate(4800.618 -8911.802)" fill="none" stroke="#fff" stroke-linecap="round" stroke-linejoin="round" stroke-width="3"/>
        <path id="Trazado_244-2" data-name="Trazado 244" d="M-4611.424,9486.516s-124.591,74.488-138.908,82.972-14.825,21.212,0,30.931,117.708,75.62,117.708,75.62" transform="translate(5049.023 -9157.908)" fill="none" stroke="#fff" stroke-linecap="round" stroke-linejoin="round" stroke-width="3"/>
        <g id="Grupo_491-2" data-name="Grupo 491" transform="translate(17.702 249.162)">
          <path id="Trazado_152-2" data-name="Trazado 152" d="M-5252.322,9620.912l308.081-171.106s19.2-12.6,34.331-3.655,30.252,18.967,39.874,25.272,25.874-1.407,25.874-1.407l60.318-38.551" transform="translate(5252.322 -9431.465)" fill="none" stroke="#fff" stroke-linecap="round" stroke-linejoin="round" stroke-width="3"/>
        </g>
        <path id="Trazado_245-2" data-name="Trazado 245" d="M-5062.956,9626.735l-80.072,48.063s-19.2,12.6-34.331,3.655-30.252-18.968-39.874-25.272-25.874,1.407-25.874,1.407l-145.972,95.067" transform="translate(5445.937 -8939.888)" fill="none" stroke="#fff" stroke-linecap="round" stroke-linejoin="round" stroke-width="3"/>
        <circle id="Elipse_997-2" data-name="Elipse 997" cx="8.5" cy="8.5" r="8.5" transform="translate(0.199 435)" fill="none" stroke="#fff" stroke-linecap="round" stroke-linejoin="round" stroke-width="3"/>
        <ellipse id="Elipse_1000-2" data-name="Elipse 1000" cx="8.5" cy="9" rx="8.5" ry="9" transform="translate(71.199 687)" fill="none" stroke="#fff" stroke-linecap="round" stroke-linejoin="round" stroke-width="3"/>
        <ellipse id="Elipse_1001-2" data-name="Elipse 1001" cx="8.5" cy="9" rx="8.5" ry="9" transform="translate(125.199 541)" fill="none" stroke="#fff" stroke-linecap="round" stroke-linejoin="round" stroke-width="3"/>
        <circle id="Elipse_1004-2" data-name="Elipse 1004" cx="9" cy="9" r="9" transform="translate(437.199 315)" fill="none" stroke="#fff" stroke-linecap="round" stroke-linejoin="round" stroke-width="3"/>
        <ellipse id="Elipse_1006-2" data-name="Elipse 1006" cx="9" cy="8.5" rx="9" ry="8.5" transform="translate(414.199 517)" fill="none" stroke="#fff" stroke-linecap="round" stroke-linejoin="round" stroke-width="3"/>
        <circle id="Elipse_1005-2" data-name="Elipse 1005" cx="8.5" cy="8.5" r="8.5" transform="translate(486.199 235)" fill="none" stroke="#fff" stroke-linecap="round" stroke-linejoin="round" stroke-width="3"/>
        <circle id="Elipse_1007-2" data-name="Elipse 1007" cx="8.5" cy="8.5" r="8.5" transform="translate(381.199 673)" fill="none" stroke="#fff" stroke-linecap="round" stroke-linejoin="round" stroke-width="3"/>
        <ellipse id="Elipse_1008-2" data-name="Elipse 1008" cx="9" cy="8.5" rx="9" ry="8.5" transform="translate(39.199 807)" fill="none" stroke="#fff" stroke-linecap="round" stroke-linejoin="round" stroke-width="3"/>
      </g>
    </g>
    <g id="Grupo_510" data-name="Grupo 510" transform="translate(1458 -31)" opacity="0.4" style="isolation: isolate">
      <g id="Grupo_495-3" data-name="Grupo 495" transform="translate(0 1.53)" opacity="0.4" style="isolation: isolate">
        <path id="Trazado_154-3" data-name="Trazado 154" d="M-5028.249,9404.668l37.483,20.9c5.624,3.135,14.45,2.121,21.532-1.969s115.3-67.529,121.761-71.311c7.969-4.662,13.9-7.113,4.472-12.908l-23.191-14.251c-3.495-2.147-3.9-4.669.473-7.456s152.136-89.729,152.136-89.729" transform="translate(5039.991 -9217.008)" fill="none" stroke="#fff" stroke-linecap="round" stroke-linejoin="round" stroke-width="2"/>
        <path id="Trazado_248" data-name="Trazado 248" d="M-5028.249,9404.668l37.483,20.9c5.624,3.135,14.45,2.121,21.532-1.969s115.3-67.529,121.761-71.311c7.969-4.662,13.9-7.113,4.472-12.908l-23.191-14.251c-3.495-2.147-3.9-4.669.473-7.456s152.136-89.729,152.136-89.729" transform="translate(5615.991 -9224.008)" fill="none" stroke="#fff" stroke-linecap="round" stroke-linejoin="round" stroke-width="2"/>
        <path id="Trazado_159-3" data-name="Trazado 159" d="M-4755.545,9251.735l-10.125-6.18c-4.477-2.733-8.83-3.937-14.87-.506-4.252,2.414-26.452,15.915-39.339,23.767-5.251,3.2-8.953,5.461-1.441,10.143l37.314,22.9c8.051,4.94,4.612,10.128-.119,13.038l-128.074,78.76" transform="translate(5076.896 -9059.802)" fill="none" stroke="#fff" stroke-linecap="round" stroke-linejoin="round" stroke-width="2"/>
        <path id="Trazado_160" data-name="Trazado 160" d="M-4743.806,9118.775s-128.69,76.045-132.145,78.165-4.927,4.246-.418,7.024,16.105,9.781,22.179,13.426c5.947,3.568,5.632,5.127.649,8.185l-86.728,50.63" transform="translate(5401.75 -9077.696)" fill="none" stroke="#fff" stroke-linecap="round" stroke-linejoin="round" stroke-width="2"/>
        <path id="Trazado_246-3" data-name="Trazado 246" d="M-4685.864,9177.613s-76.819,47.857-80.274,49.977-4.927,4.246-.418,7.025,16.106,9.779,22.18,13.424c5.946,3.569,5.632,5.127.649,8.186l-88.267,51.813" transform="translate(4843.759 -8929.562)" fill="none" stroke="#fff" stroke-linecap="round" stroke-linejoin="round" stroke-width="2"/>
        <path id="Trazado_161-3" data-name="Trazado 161" d="M-4686.131,9062.656s-24.744,16.406-29.922,19.4-3.41,9.9,2.16,13.31,31.292,19.682,35.931,22.521c6.813,4.169,6.92,10.022-.9,14.688l-115.065,68.7" transform="translate(5061.479 -8749.716)" fill="none" stroke="#fff" stroke-linecap="round" stroke-linejoin="round" stroke-width="2"/>
        <g id="Grupo_492-3" data-name="Grupo 492" transform="translate(419.166 286.703)">
          <path id="Trazado_162-3" data-name="Trazado 162" d="M-4758.33,9049.526s69.766-41.43,76.9-45.663,15.624-2.6,23.9,2.174,34.039,20.389,34.039,20.389" transform="translate(4769.816 -9001.423)" fill="none" stroke="#fff" stroke-linecap="round" stroke-linejoin="round" stroke-width="2"/>
          <ellipse id="Elipse_1009-3" data-name="Elipse 1009" cx="7" cy="6.5" rx="7" ry="6.5" transform="translate(144.834 22.768)" fill="none" stroke="#fff" stroke-linecap="round" stroke-linejoin="round" stroke-width="2"/>
          <circle id="Elipse_1010-3" data-name="Elipse 1010" cx="6.5" cy="6.5" r="6.5" transform="translate(-0.166 46.768)" fill="none" stroke="#fff" stroke-linecap="round" stroke-linejoin="round" stroke-width="2"/>
        </g>
        <circle id="Elipse_1011-3" data-name="Elipse 1011" cx="7" cy="7" r="7" transform="translate(255 449.47)" fill="none" stroke="#fff" stroke-linecap="round" stroke-linejoin="round" stroke-width="2"/>
        <circle id="Elipse_1012-3" data-name="Elipse 1012" cx="6.5" cy="6.5" r="6.5" transform="translate(373 300.47)" fill="none" stroke="#fff" stroke-linecap="round" stroke-linejoin="round" stroke-width="2"/>
        <ellipse id="Elipse_1015-3" data-name="Elipse 1015" cx="6.5" cy="7" rx="6.5" ry="7" transform="translate(320 189.47)" fill="none" stroke="#fff" stroke-linecap="round" stroke-linejoin="round" stroke-width="2"/>
        <circle id="Elipse_1017-3" data-name="Elipse 1017" cx="7" cy="7" r="7" transform="translate(156 236.47)" fill="none" stroke="#fff" stroke-linecap="round" stroke-linejoin="round" stroke-width="2"/>
        <circle id="Elipse_1013" data-name="Elipse 1013" cx="7" cy="7" r="7" transform="translate(656 29.47)" fill="none" stroke="#fff" stroke-linecap="round" stroke-linejoin="round" stroke-width="2"/>
        <circle id="Elipse_1014" data-name="Elipse 1014" cx="7" cy="7" r="7" transform="translate(450 196.471)" fill="none" stroke="#fff" stroke-linecap="round" stroke-linejoin="round" stroke-width="2"/>
        <circle id="Elipse_1016-3" data-name="Elipse 1016" cx="6.5" cy="6.5" r="6.5" transform="translate(153 332.47)" fill="none" stroke="#fff" stroke-linecap="round" stroke-linejoin="round" stroke-width="2"/>
        <circle id="Elipse_1018-3" data-name="Elipse 1018" cx="6.5" cy="6.5" r="6.5" transform="translate(0 376.47)" fill="none" stroke="#fff" stroke-linecap="round" stroke-linejoin="round" stroke-width="2"/>
        <circle id="Elipse_1019-3" data-name="Elipse 1019" cx="7" cy="7" r="7" transform="translate(0 175.47)" fill="none" stroke="#fff" stroke-linecap="round" stroke-linejoin="round" stroke-width="2"/>
        <circle id="Elipse_1022" data-name="Elipse 1022" cx="7" cy="7" r="7" transform="translate(576 168.47)" fill="none" stroke="#fff" stroke-linecap="round" stroke-linejoin="round" stroke-width="2"/>
        <circle id="Elipse_1020-3" data-name="Elipse 1020" cx="6.5" cy="6.5" r="6.5" transform="translate(325 0.47)" fill="none" stroke="#fff" stroke-linecap="round" stroke-linejoin="round" stroke-width="2"/>
      </g>
      <g id="Grupo_496-3" data-name="Grupo 496" transform="translate(68.841)" style="isolation: isolate">
        <line id="Línea_44" data-name="Línea 44" x1="286.796" y1="163.397" transform="translate(55.318 9.209)" fill="none" stroke="#fff" stroke-linecap="round" stroke-width="3"/>
        <path id="Trazado_155-3" data-name="Trazado 155" d="M-4616.016,9571.393s-77.068-42.949-88.021-49.437-11.339-16.225,0-23.659,46.021-30.681,46.021-30.681" transform="translate(5079.041 -9392.046)" fill="none" stroke="#fff" stroke-linecap="round" stroke-linejoin="round" stroke-width="3"/>
        <path id="Trazado_244-3" data-name="Trazado 244" d="M-4743.541,9514.066s61.363,35.9,72.314,42.392,11.34,16.226,0,23.659-90.035,57.842-90.035,57.842" transform="translate(4898.026 -9241.641)" fill="none" stroke="#fff" stroke-linecap="round" stroke-linejoin="round" stroke-width="3"/>
        <path id="Trazado_170" data-name="Trazado 170" d="M-4897.983,9584.481l-85.248-51.288s-13.9-10.6-25.058-4.36-51.432,30.007-51.432,30.007" transform="translate(5071.951 -9457.904)" fill="none" stroke="#fff" stroke-linecap="round" stroke-linejoin="round" stroke-width="3"/>
        <g id="Grupo_491-3" data-name="Grupo 491" transform="translate(83.39 190.584)">
          <path id="Trazado_152-3" data-name="Trazado 152" d="M-4893.984,9576.373l-235.651-130.879s-14.687-9.638-26.26-2.8-23.14,14.508-30.5,19.332-19.791-1.076-19.791-1.076l-46.137-29.488" transform="translate(5252.323 -9431.465)" fill="none" stroke="#fff" stroke-linecap="round" stroke-linejoin="round" stroke-width="3"/>
          <line id="Línea_56" data-name="Línea 56" y1="37.368" x2="60.364" transform="translate(271.992 58.775)" fill="none" stroke="#fff" stroke-linecap="round" stroke-width="3"/>
        </g>
        <path id="Trazado_245-3" data-name="Trazado 245" d="M-5389.078,9624.758l36.132,24.519s9.408,6.173,16.821,1.791,14.822-9.294,19.537-12.382,12.677.689,12.677.689l71.521,46.578" transform="translate(5232.953 -9531.467)" fill="none" stroke="#fff" stroke-linecap="round" stroke-linejoin="round" stroke-width="3"/>
        <circle id="Elipse_997-3" data-name="Elipse 997" cx="6.5" cy="6.5" r="6.5" transform="translate(442.159 333)" fill="none" stroke="#fff" stroke-linecap="round" stroke-linejoin="round" stroke-width="3"/>
        <circle id="Elipse_998" data-name="Elipse 998" cx="6.5" cy="6.5" r="6.5" transform="translate(415.159 238)" fill="none" stroke="#fff" stroke-linecap="round" stroke-linejoin="round" stroke-width="3"/>
        <circle id="Elipse_999" data-name="Elipse 999" cx="7" cy="7" r="7" transform="translate(342.159 170)" fill="none" stroke="#fff" stroke-linecap="round" stroke-linejoin="round" stroke-width="3"/>
        <circle id="Elipse_1000-3" data-name="Elipse 1000" cx="6.5" cy="6.5" r="6.5" transform="translate(463.159 176)" fill="none" stroke="#fff" stroke-linecap="round" stroke-linejoin="round" stroke-width="3"/>
        <circle id="Elipse_1003" data-name="Elipse 1003" cx="7" cy="7" r="7" transform="translate(0.159 99)" fill="none" stroke="#fff" stroke-linecap="round" stroke-linejoin="round" stroke-width="3"/>
        <circle id="Elipse_1001-3" data-name="Elipse 1001" cx="6.5" cy="6.5" r="6.5" transform="translate(422.159 64)" fill="none" stroke="#fff" stroke-linecap="round" stroke-linejoin="round" stroke-width="3"/>
        <circle id="Elipse_1002" data-name="Elipse 1002" cx="6.5" cy="6.5" r="6.5" transform="translate(42.159)" fill="none" stroke="#fff" stroke-linecap="round" stroke-linejoin="round" stroke-width="3"/>
        <ellipse id="Elipse_1004-3" data-name="Elipse 1004" cx="6.5" cy="7" rx="6.5" ry="7" transform="translate(141.159 263)" fill="none" stroke="#fff" stroke-linecap="round" stroke-linejoin="round" stroke-width="3"/>
        <ellipse id="Elipse_1006-3" data-name="Elipse 1006" cx="6.5" cy="7" rx="6.5" ry="7" transform="translate(125.159 395)" fill="none" stroke="#fff" stroke-linecap="round" stroke-linejoin="round" stroke-width="3"/>
        <circle id="Elipse_1005-3" data-name="Elipse 1005" cx="6.5" cy="6.5" r="6.5" transform="translate(70.159 180)" fill="none" stroke="#fff" stroke-linecap="round" stroke-linejoin="round" stroke-width="3"/>
        <circle id="Elipse_1007-3" data-name="Elipse 1007" cx="6.5" cy="6.5" r="6.5" transform="translate(-168.841 82)" fill="none" stroke="#fff" stroke-linecap="round" stroke-linejoin="round" stroke-width="3"/>
        <circle id="Elipse_1008-3" data-name="Elipse 1008" cx="7" cy="7" r="7" transform="translate(0.159 152)" fill="none" stroke="#fff" stroke-linecap="round" stroke-linejoin="round" stroke-width="3"/>
        <circle id="Elipse_1021" data-name="Elipse 1021" cx="6.5" cy="6.5" r="6.5" transform="translate(174.159 125)" fill="none" stroke="#fff" stroke-linecap="round" stroke-linejoin="round" stroke-width="3"/>
      </g>
    </g>
  </g>
</svg>
